<?xml version="1.0" encoding="utf-8"?>
<!-- Generator: Adobe Illustrator 26.3.1, SVG Export Plug-In . SVG Version: 6.00 Build 0)  -->
<svg version="1.1" id="Capa_1" xmlns="http://www.w3.org/2000/svg" xmlns:xlink="http://www.w3.org/1999/xlink" x="0px" y="0px"
	 viewBox="0 0 240.4 240.4" style="enable-background:new 0 0 240.4 240.4;" xml:space="preserve">
<style type="text/css">
	.st0{fill:url(#SVGID_1_);}
	.st1{fill:url(#SVGID_00000047062324153522952050000012990719514570097594_);}
	.st2{fill:#EF7167;}
	.st3{clip-path:url(#SVGID_00000030467508770403969570000008304708723837475237_);fill:#FFFFFF;}
</style>
<g>
	
		<linearGradient id="SVGID_1_" gradientUnits="userSpaceOnUse" x1="120.6704" y1="87.4195" x2="119.9575" y2="11.1422" gradientTransform="matrix(1 0 0 -1 0 239.9375)">
		<stop  offset="0" style="stop-color:#D65751"/>
		<stop  offset="0.7368" style="stop-color:#A84C43"/>
	</linearGradient>
	<path class="st0" d="M0.1,176.2L4,208.9l193.2,12.5l43.4-24l-0.6-15.6l0,0c-5.4-7.8-13.5-13.2-22.8-14.9
		c-9.8-1.8-20.6-1.5-27.8,1.5c-5.5,2.3-10.9,5.9-16.8,6c-3.9,0-7.7-1.5-11.5-2.3s-8.2-0.5-11.1,2.5c-1.8,1.9-2.9,4.6-4.6,6.5
		c-2.4,2.6-6.1,3.5-9.1,2.2c-3.1-1.3-5.4-4.8-5.9-8.6c-0.3-2.6,0.2-5.3-0.2-7.9c-0.7-4.2-3.8-7.5-7.2-8.8c-3.4-1.4-7.1-1.2-10.7-0.7
		c-4.9,0.6-10.1,1.9-13.8,5.8c-3.1,3.3-4.8,8-7.5,11.8c-5.2,7.6-14.2,11.1-22.1,8.8c-7.1-2.1-12.8-8.2-19.3-12.2
		c-13.7-8.4-30.5-6.9-45.4,2.5L0.1,176.2z"/>
</g>
<g>
	
		<linearGradient id="SVGID_00000035527978156790169150000000893335279362634645_" gradientUnits="userSpaceOnUse" x1="119.8708" y1="8271.1973" x2="120.5836" y2="8559.5537" gradientTransform="matrix(1 0 0 1 0 -8263.999)">
		<stop  offset="0" style="stop-color:#EF7167"/>
		<stop  offset="0.2622" style="stop-color:#EA6F66"/>
		<stop  offset="0.5732" style="stop-color:#DC6A63"/>
		<stop  offset="0.7368" style="stop-color:#D16661"/>
	</linearGradient>
	<path style="fill:url(#SVGID_00000035527978156790169150000000893335279362634645_);" d="M12.6,225.1V15.2h215.1v209.9L12.6,225.1
		L12.6,225.1z M22.9,215.8H218V25.1H22.9V215.8z"/>
	<path class="st2" d="M129.8,162.5c-0.7,0.1-1.2,0.1-1.6,0.1h-12c-1.6,0-1.7-0.1-2.1-1.7c-2-7.3-4-14.6-6.1-21.9
		c-0.2-0.6-0.3-1.1-0.5-1.7H81.2c-0.2,0.7-0.4,1.4-0.6,2c-1.9,7.2-3.8,14.5-5.8,21.7c-0.4,1.6-0.5,1.6-2,1.6H62.1
		c-0.4,0-0.9,0-1.2-0.1c-0.6-0.7-0.2-1.4,0-2c1.7-6.1,3.4-12.1,5.2-18.1c5.9-20.6,11.8-41.3,17.7-61.9c0.6-2.2,1-4.4,1-6.7
		c0-1.4,0.2-1.5,1.6-1.5c5,0,10.1,0,15.1,0c1.9,0,1.9,0,2.4,1.7l11.6,39.2c4.6,15.5,9.2,31,13.7,46.6
		C129.4,160.7,129.6,161.5,129.8,162.5z M104.3,123.9c-3.4-12.9-6.7-25.6-10-38.3c-2.8,12.8-6.4,25.5-9.7,38.3L104.3,123.9z"/>
	<path class="st2" d="M148.5,132.3c-0.3,10.3,4.9,17.6,14.9,18.5c5.4,0.6,10.9-0.2,16-2.2c0.4-0.1,0.7-0.2,1.1-0.3
		c0.1,0.5,0.2,0.9,0.2,1.4c0,3,0,6,0,8.9c0.1,1.2-0.6,2.3-1.8,2.6c-2.9,1.2-6,2-9.2,2.3c-4.4,0.6-8.9,0.5-13.4-0.3
		c-10.1-2-16.7-7.9-20.2-17.5c-2.1-5.9-2.9-12.1-2.5-18.3c0.2-4.8,1.1-9.6,2.7-14.1c1.4-4,3.6-7.6,6.4-10.7
		c5.9-6.3,13.2-8.7,21.7-7.7c9,1,15,5.9,18.4,14.2c0.5,1.3,1,2.6,1.3,4c1.1,4.3,1.4,8.8,1,13.3c-0.1,1.1-0.2,2.3-0.4,3.4
		c-0.3,1.7-0.5,1.9-2.2,2c-2.1,0.2-4.2,0.3-6.3,0.3c-8.7,0-17.4,0-26.1,0L148.5,132.3z M171.2,120.7c0.3-2.8-0.1-5.6-1.4-8.2
		c-3.4-7.5-12.6-6.9-16.5-3c-3.1,3.1-4.2,7.1-4.7,11.3C150.2,121.2,169.8,121.1,171.2,120.7z"/>
</g>
<g>
	<path class="st2" d="M240,181.8c-0.1,2.9-0.6,3.3-1.4,4.6c-2.8,4.5-5.2,3.2-9.9,4.1c-4.7,0.9-9.6,0.2-14.3,0.7
		c-8.8,0.8-17,5.1-25.6,7.1c-9.8,2.2-20.2,1.2-29.5-2.7c-5.1-2.2-10.1-5.3-15.6-5.4c-4.8-0.1-9.4,2-14.2,2
		c-6.7-0.1-12.6-4.5-19.1-6.1c-14.9-3.8-29.2,6.8-44,11c-16.8,4.7-35.5,0.6-49.4-11c-2.2-1.8-4.3-3.8-6.9-4.8
		c-1.8-0.6-8.4-2.8-10-4.9l-7.1,2.5c0,0,2.9,54.5,2.5,58.1c-0.3,3.6,16.2,17.5,28.7,16.8c12.4-0.7,166.1,10.3,178.1,7.5
		c12-2.9,39.7-20.6,39.7-20.6s15.3-49.6,13.7-53.2C254.1,183.6,240,181.8,240,181.8z"/>
</g>
<g>
	<g>
		<g>
			<defs>
				<path id="SVGID_00000132075896009906119900000000087184814765978002_" d="M240,181.8c-0.1,2.9-0.6,3.3-1.4,4.6
					c-2.8,4.5-5.2,3.2-9.9,4.1c-4.7,0.9-9.6,0.2-14.3,0.7c-8.8,0.8-17,5.1-25.6,7.1c-9.8,2.2-20.2,1.2-29.5-2.7
					c-5.1-2.2-10.1-5.3-15.6-5.4c-4.8-0.1-9.4,2-14.2,2c-6.7-0.1-12.6-4.5-19.1-6.1c-14.9-3.8-29.2,6.8-44,11
					c-16.8,4.7-35.5,0.6-49.4-11c-2.2-1.8-4.3-3.8-6.9-4.8c-1.8-0.6-8.4-2.8-10-4.9l-7.1,2.5c0,0,2.9,54.5,2.5,58.1
					c-0.3,3.6,16.2,17.5,28.7,16.8c12.4-0.7,166.1,10.3,178.1,7.5c12-2.9,39.7-20.6,39.7-20.6s15.3-49.6,13.7-53.2
					C254.1,183.6,240,181.8,240,181.8z"/>
			</defs>
			<clipPath id="SVGID_00000100341824831317638840000011412114793058138505_">
				<use xlink:href="#SVGID_00000132075896009906119900000000087184814765978002_"  style="overflow:visible;"/>
			</clipPath>
			<path style="clip-path:url(#SVGID_00000100341824831317638840000011412114793058138505_);fill:#FFFFFF;" d="M12.6,225.1V15.2
				h215.1v209.9L12.6,225.1L12.6,225.1z M22.9,215.8H218V25.1H22.9V215.8z"/>
		</g>
	</g>
</g>
</svg>
