<?xml version="1.0" encoding="utf-8"?>
<!-- Generator: Adobe Illustrator 26.3.1, SVG Export Plug-In . SVG Version: 6.00 Build 0)  -->
<svg version="1.1" id="Capa_1" xmlns="http://www.w3.org/2000/svg" xmlns:xlink="http://www.w3.org/1999/xlink" x="0px" y="0px"
	 viewBox="0 0 240.4 240.4" style="enable-background:new 0 0 240.4 240.4;" xml:space="preserve">
<style type="text/css">
	.st0{fill:url(#SVGID_1_);}
	.st1{fill:url(#SVGID_00000118371940511030883380000006502884861103484556_);}
	.st2{fill:url(#SVGID_00000062905737203899158290000014617127583826859427_);}
	.st3{fill:#EF7167;}
	.st4{clip-path:url(#SVGID_00000094596811746656725160000009496915355303483528_);fill:#FFFFFF;}
	.st5{fill:url(#SVGID_00000053532932843914070190000007733067878482558391_);}
	.st6{fill:url(#SVGID_00000038404376402383768640000005357423428046438569_);}
	.st7{fill:url(#SVGID_00000022527871285759597350000003632921871842068617_);}
	.st8{fill:url(#SVGID_00000178884624359925727530000006584512265110814376_);}
	.st9{fill:url(#SVGID_00000094589090675879442660000002619946857008878219_);}
	.st10{fill:url(#SVGID_00000016766546768721397010000005695806711276395653_);}
	.st11{fill:url(#SVGID_00000062163626042676982060000013256436156078987925_);}
	.st12{fill:url(#SVGID_00000165930220604511337240000012253958820538758025_);}
	.st13{fill:url(#SVGID_00000150792744068626789830000013000606266513206916_);}
	.st14{fill:url(#SVGID_00000080176624593537560000000015668415739960615839_);}
	.st15{fill:url(#SVGID_00000001639639624591903040000010242499585419484546_);}
	.st16{fill:url(#SVGID_00000064331716283911393550000016976215309300965310_);}
	.st17{fill:url(#SVGID_00000004503802396974322540000014154005896779255733_);}
	.st18{fill:url(#SVGID_00000005953456154736401360000001695744585520772275_);}
	.st19{fill:url(#SVGID_00000108269386175545978950000005272372203329207427_);}
	.st20{clip-path:url(#SVGID_00000144310127463578324170000003172440795124015009_);}
	.st21{fill:#FFFFFF;}
</style>
<linearGradient id="SVGID_1_" gradientUnits="userSpaceOnUse" x1="118.4066" y1="133.6412" x2="120.5452" y2="236.2947">
	<stop  offset="0" style="stop-color:#D65751"/>
	<stop  offset="0.7368" style="stop-color:#A84C43"/>
</linearGradient>
<path class="st0" d="M0,140c-0.2-0.7-0.4-1.7,0-2.7c2.2-5.1,19.5-3,29.9-0.7c17.7,3.9,21.5,9.4,33.1,7.8c1.5-0.2,6-1.9,15-5.2
	c16.4-6,20.8-8.7,30.7-10.3c1.6-0.3,6.3-1,12.5-1.1c9.6-0.1,14.3,1.4,21.7,2.1c13.7,1.4,13.2-2,24.6-0.9c17.6,1.7,19.5,10,34.2,9.3
	c8.6-0.4,9.9-3.3,19.8-3.4c8.9-0.1,16.1,2.1,21,4.1v108.8H-3.2L0,140z"/>
<g>
	
		<linearGradient id="SVGID_00000138561086961595405600000009846020754527509385_" gradientUnits="userSpaceOnUse" x1="474.2546" y1="101.9982" x2="473.5417" y2="25.7209" gradientTransform="matrix(1 0 0 -1 0 239.9375)">
		<stop  offset="0" style="stop-color:#D65751"/>
		<stop  offset="0.7368" style="stop-color:#A84C43"/>
	</linearGradient>
	<path style="fill:url(#SVGID_00000138561086961595405600000009846020754527509385_);" d="M353.7,161.6l3.9,32.7l193.2,12.5l43.4-24
		l-0.6-15.6l0,0c-5.4-7.8-13.5-13.2-22.8-14.9c-9.8-1.8-20.6-1.5-27.8,1.5c-5.5,2.3-10.9,5.9-16.8,6c-3.9,0-7.7-1.5-11.5-2.3
		s-8.2-0.5-11.1,2.5c-1.8,1.9-2.9,4.6-4.6,6.5c-2.4,2.6-6.1,3.5-9.1,2.2c-3.1-1.3-5.4-4.8-5.9-8.6c-0.3-2.6,0.2-5.3-0.2-7.9
		c-0.7-4.2-3.8-7.5-7.2-8.8c-3.4-1.4-7.1-1.2-10.7-0.7c-4.9,0.6-10.1,1.9-13.8,5.8c-3.1,3.3-4.8,8-7.5,11.8
		c-5.2,7.6-14.2,11.1-22.1,8.8c-7.1-2.1-12.8-8.2-19.3-12.2c-13.7-8.4-30.5-6.9-45.4,2.5L353.7,161.6z"/>
</g>
<g>
	
		<linearGradient id="SVGID_00000054253876948622369470000012156079308651715753_" gradientUnits="userSpaceOnUse" x1="473.455" y1="8256.6182" x2="474.1678" y2="8544.9746" gradientTransform="matrix(1 0 0 1 0 -8263.999)">
		<stop  offset="0" style="stop-color:#EF7167"/>
		<stop  offset="0.2622" style="stop-color:#EA6F66"/>
		<stop  offset="0.5732" style="stop-color:#DC6A63"/>
		<stop  offset="0.7368" style="stop-color:#D16661"/>
	</linearGradient>
	<path style="fill:url(#SVGID_00000054253876948622369470000012156079308651715753_);" d="M366.2,210.5V0.6h215.1v209.9L366.2,210.5
		L366.2,210.5z M376.5,201.2h195.1V10.5H376.5V201.2z"/>
	<path class="st3" d="M483.4,147.9c-0.7,0.1-1.2,0.1-1.6,0.1h-12c-1.6,0-1.7-0.1-2.1-1.7c-2-7.3-4-14.6-6.1-21.9
		c-0.2-0.6-0.3-1.1-0.5-1.7h-26.3c-0.2,0.7-0.4,1.4-0.6,2c-1.9,7.2-3.8,14.5-5.8,21.7c-0.4,1.6-0.5,1.6-2,1.6h-10.7
		c-0.4,0-0.9,0-1.2-0.1c-0.6-0.7-0.2-1.4,0-2c1.7-6.1,3.4-12.1,5.2-18.1c5.9-20.6,11.8-41.3,17.7-61.9c0.6-2.2,1-4.4,1-6.7
		c0-1.4,0.2-1.5,1.6-1.5c5,0,10.1,0,15.1,0c1.9,0,1.9,0,2.4,1.7l11.6,39.2c4.6,15.5,9.2,31,13.7,46.6
		C483,146.1,483.2,146.9,483.4,147.9z M457.9,109.3c-3.4-12.9-6.7-25.6-10-38.3c-2.8,12.8-6.4,25.5-9.7,38.3L457.9,109.3z"/>
	<path class="st3" d="M502.1,117.7c-0.3,10.3,4.9,17.6,14.9,18.5c5.4,0.6,10.9-0.2,16-2.2c0.4-0.1,0.7-0.2,1.1-0.3
		c0.1,0.5,0.2,0.9,0.2,1.4c0,3,0,6,0,8.9c0.1,1.2-0.6,2.3-1.8,2.6c-2.9,1.2-6,2-9.2,2.3c-4.4,0.6-8.9,0.5-13.4-0.3
		c-10.1-2-16.7-7.9-20.2-17.5c-2.1-5.9-2.9-12.1-2.5-18.3c0.2-4.8,1.1-9.6,2.7-14.1c1.4-4,3.6-7.6,6.4-10.7
		c5.9-6.3,13.2-8.7,21.7-7.7c9,1,15,5.9,18.4,14.2c0.5,1.3,1,2.6,1.3,4c1.1,4.3,1.4,8.8,1,13.3c-0.1,1.1-0.2,2.3-0.4,3.4
		c-0.3,1.7-0.5,1.9-2.2,2c-2.1,0.2-4.2,0.3-6.3,0.3c-8.7,0-17.4,0-26.1,0L502.1,117.7z M524.8,106.1c0.3-2.8-0.1-5.6-1.4-8.2
		c-3.4-7.5-12.6-6.9-16.5-3c-3.1,3.1-4.2,7.1-4.7,11.3C503.8,106.6,523.4,106.5,524.8,106.1z"/>
</g>
<g>
	<path class="st3" d="M593.6,167.2c-0.1,2.9-0.6,3.3-1.4,4.6c-2.8,4.5-5.2,3.2-9.9,4.1c-4.7,0.9-9.6,0.2-14.3,0.7
		c-8.8,0.8-17,5.1-25.6,7.1c-9.8,2.2-20.2,1.2-29.5-2.7c-5.1-2.2-10.1-5.3-15.6-5.4c-4.8-0.1-9.4,2-14.2,2
		c-6.7-0.1-12.6-4.5-19.1-6.1c-14.9-3.8-29.2,6.8-44,11c-16.8,4.7-35.5,0.6-49.4-11c-2.2-1.8-4.3-3.8-6.9-4.8
		c-1.8-0.6-8.4-2.8-10-4.9l-7.1,2.5c0,0,2.9,54.5,2.5,58.1c-0.3,3.6,16.2,17.5,28.7,16.8c12.4-0.7,166.1,10.3,178.1,7.5
		c12-2.9,39.7-20.6,39.7-20.6s15.3-49.6,13.7-53.2C607.7,169,593.6,167.2,593.6,167.2z"/>
</g>
<g>
	<g>
		<g>
			<defs>
				<path id="SVGID_00000116923468654251420220000008085655214379551410_" d="M593.6,167.2c-0.1,2.9-0.6,3.3-1.4,4.6
					c-2.8,4.5-5.2,3.2-9.9,4.1c-4.7,0.9-9.6,0.2-14.3,0.7c-8.8,0.8-17,5.1-25.6,7.1c-9.8,2.2-20.2,1.2-29.5-2.7
					c-5.1-2.2-10.1-5.3-15.6-5.4c-4.8-0.1-9.4,2-14.2,2c-6.7-0.1-12.6-4.5-19.1-6.1c-14.9-3.8-29.2,6.8-44,11
					c-16.8,4.7-35.5,0.6-49.4-11c-2.2-1.8-4.3-3.8-6.9-4.8c-1.8-0.6-8.4-2.8-10-4.9l-7.1,2.5c0,0,2.9,54.5,2.5,58.1
					c-0.3,3.6,16.2,17.5,28.7,16.8c12.4-0.7,166.1,10.3,178.1,7.5c12-2.9,39.7-20.6,39.7-20.6s15.3-49.6,13.7-53.2
					C607.7,169,593.6,167.2,593.6,167.2z"/>
			</defs>
			<clipPath id="SVGID_00000116950532095449397050000007666642156383304067_">
				<use xlink:href="#SVGID_00000116923468654251420220000008085655214379551410_"  style="overflow:visible;"/>
			</clipPath>
			<path style="clip-path:url(#SVGID_00000116950532095449397050000007666642156383304067_);fill:#FFFFFF;" d="M366.2,210.5V0.6
				h215.1v209.9L366.2,210.5L366.2,210.5z M376.5,201.2h195.1V10.5H376.5V201.2z"/>
		</g>
	</g>
</g>
<g>
	
		<linearGradient id="SVGID_00000003811817588560476170000002860580193578695348_" gradientUnits="userSpaceOnUse" x1="33.9759" y1="6.912" x2="33.2631" y2="228.2585">
		<stop  offset="0" style="stop-color:#EF7167"/>
		<stop  offset="0.2622" style="stop-color:#EA6F66"/>
		<stop  offset="0.5732" style="stop-color:#DC6A63"/>
		<stop  offset="0.7368" style="stop-color:#D16661"/>
	</linearGradient>
	<path style="fill:url(#SVGID_00000003811817588560476170000002860580193578695348_);" d="M22.4,209c0.1-0.9,0.2-1.8,0.4-2.6
		c0.9-4.2,2.8-7.8,6.8-9.7c4.5-2.2,9-2,13,1.3c0.3,0.3,0.6,0.6,1,0.9c-0.9,1.1-1.8,2.1-2.6,3.2c-0.5-0.4-1-0.8-1.5-1.1
		c-3-2.1-7-1.6-9.5,1.2c-1.5,1.7-2.1,3.7-2.4,5.9c-0.3,2.4-0.2,4.7,0.6,7c1,2.8,2.7,4.7,5.7,5.3c2.7,0.5,5-0.4,6.9-2.3
		c0.2-0.2,0.3-0.3,0.5-0.5c0.9,1,1.7,2,2.7,3.2c-0.4,0.4-0.9,0.7-1.3,1.1c-2.5,2.2-5.5,3.1-8.8,2.9c-7-0.6-10.4-5.7-11.3-10.8
		c-0.2-0.9-0.2-1.8-0.4-2.7C22.4,210.3,22.4,209.6,22.4,209z"/>
	
		<linearGradient id="SVGID_00000113339583125203789920000013173807898956078978_" gradientUnits="userSpaceOnUse" x1="123.9808" y1="7.2019" x2="123.268" y2="228.5484">
		<stop  offset="0" style="stop-color:#EF7167"/>
		<stop  offset="0.2622" style="stop-color:#EA6F66"/>
		<stop  offset="0.5732" style="stop-color:#DC6A63"/>
		<stop  offset="0.7368" style="stop-color:#D16661"/>
	</linearGradient>
	<path style="fill:url(#SVGID_00000113339583125203789920000013173807898956078978_);" d="M142.4,63.8c-0.3,4.9-0.4,9.3-0.8,13.7
		c-0.4,4.3-0.8,8.5-1.4,12.7c-1,7.5-2.4,15-4,22.4c-2.8,13-6.2,25.9-10,38.7c-0.2,0.6-0.4,0.8-1,0.7c-1.1-0.1-2.2,0-3.2,0
		c-0.4,0-0.6-0.1-0.7-0.5c-3.9-13.1-7.5-26.3-10.2-39.7c-1.2-5.8-2.3-11.7-3.2-17.6c-0.7-4.2-1.2-8.5-1.6-12.7
		c-0.8-7.2-1.1-14.4-1-21.7c0.1-7,0.7-14,2.2-20.9c1.1-4.9,2.5-9.6,5-14c1.7-3,3.7-5.6,6.6-7.6c3.1-2.1,6.2-2.1,9.3-0.1
		c2.5,1.6,4.4,3.8,6,6.4c2.7,4.3,4.3,9,5.4,13.8c1.1,4.4,1.8,8.8,2.1,13.3C142.1,55.3,142.2,59.8,142.4,63.8z"/>
	
		<linearGradient id="SVGID_00000017477265631296001580000015267947406990507648_" gradientUnits="userSpaceOnUse" x1="150.6227" y1="7.2877" x2="149.9098" y2="228.6342">
		<stop  offset="0" style="stop-color:#EF7167"/>
		<stop  offset="0.2622" style="stop-color:#EA6F66"/>
		<stop  offset="0.5732" style="stop-color:#DC6A63"/>
		<stop  offset="0.7368" style="stop-color:#D16661"/>
	</linearGradient>
	<path style="fill:url(#SVGID_00000017477265631296001580000015267947406990507648_);" d="M129.4,151.6c1.2-2.2,2.4-4.3,3.5-6.5
		c8-15.1,14.7-30.7,19.6-47.1c1.9-6.3,3.4-12.6,4.5-19.1c0.7-4.3,1.3-8.7,1.4-13.1c0.1-3.3,0.1-6.6-0.2-9.9
		c-0.7-9.3-3.3-18-8.6-25.8c-3.9-5.8-8.9-10.5-15.2-13.8c-0.3-0.2-0.7-0.3-1-0.6c0.6,0.1,1.2,0.2,1.8,0.3
		c16.5,3.9,27.5,14,33.2,29.9c1.4,3.9,2.1,7.9,2.5,11.9c0.6,5.9,0,11.7-1.2,17.4c-2.1,10.2-5.7,19.9-10,29.4
		c-4.8,10.7-10.3,20.9-16.9,30.6c-3.6,5.3-7.4,10.4-12,14.9c-0.5,0.5-0.9,1-1.3,1.5C129.5,151.7,129.5,151.6,129.4,151.6z"/>
	
		<linearGradient id="SVGID_00000042708768211564663130000009558650592010882748_" gradientUnits="userSpaceOnUse" x1="97.9615" y1="7.1181" x2="97.2487" y2="228.4646">
		<stop  offset="0" style="stop-color:#EF7167"/>
		<stop  offset="0.2622" style="stop-color:#EA6F66"/>
		<stop  offset="0.5732" style="stop-color:#DC6A63"/>
		<stop  offset="0.7368" style="stop-color:#D16661"/>
	</linearGradient>
	<path style="fill:url(#SVGID_00000042708768211564663130000009558650592010882748_);" d="M114.6,15.8c-1.1,0.6-2.2,1.1-3.2,1.8
		c-7.3,4.5-12.6,10.7-16.4,18.3c-2.5,5-4,10.4-4.8,15.9c-0.7,4.8-0.9,9.5-0.6,14.3c0.3,6.3,1.2,12.5,2.5,18.7
		c3.3,15.5,8.8,30.3,15.3,44.7c3.3,7.4,7,14.6,11,21.6c0.1,0.1,0.1,0.2,0.1,0.4c-0.2-0.2-0.4-0.3-0.5-0.5c-4.2-4-7.8-8.5-11.1-13.2
		c-10.8-15.5-19.3-32.2-25.3-50.1c-1.7-4.9-3-10-3.9-15.1c-0.6-3.7-1.1-7.3-0.9-11c0.4-9.7,2.8-18.8,8.3-26.9
		c4.1-6,9.2-10.9,15.7-14.3c3.9-2.1,8.1-3.5,12.5-4.5c0.3-0.1,0.6-0.1,0.9-0.1C114.3,15.8,114.4,15.8,114.6,15.8z"/>
	
		<linearGradient id="SVGID_00000038412587948713027170000015932238414866985634_" gradientUnits="userSpaceOnUse" x1="202.103" y1="7.4535" x2="201.3901" y2="228.8">
		<stop  offset="0" style="stop-color:#EF7167"/>
		<stop  offset="0.2622" style="stop-color:#EA6F66"/>
		<stop  offset="0.5732" style="stop-color:#DC6A63"/>
		<stop  offset="0.7368" style="stop-color:#D16661"/>
	</linearGradient>
	<path style="fill:url(#SVGID_00000038412587948713027170000015932238414866985634_);" d="M199.5,195.7c1.5,0,2.9,0,4.4,0
		c1.8,7.8,3.6,15.6,5.4,23.4c0,0,0.1,0,0.1,0c0.1-0.7,0.2-1.5,0.4-2.2c0.7-4.4,1.4-8.8,2.1-13.2c0.4-2.5,0.9-5,1.3-7.5
		c0-0.2,0.2-0.5,0.4-0.5c1.5,0,2.9,0,4.4,0c-0.2,1.3-0.5,2.5-0.7,3.7c-1.2,6.1-2.3,12.2-3.5,18.2c-0.4,2-0.8,4-1.1,5.9
		c-0.1,0.4-0.2,0.5-0.6,0.4c-1.7,0-3.5,0-5.2,0c-0.4,0-0.5-0.2-0.6-0.5c-1.1-4.5-2.1-9.1-3.2-13.6c-0.5-2.3-0.9-4.6-1.4-6.9
		c0-0.2-0.1-0.3-0.3-0.5c-0.1,0.2-0.1,0.4-0.2,0.5c-1.5,6.8-3,13.6-4.5,20.3c-0.1,0.5-0.3,0.6-0.8,0.6c-1.6,0-3.3,0-4.9,0
		c-0.4,0-0.5-0.1-0.6-0.5c-1.8-9.1-3.6-18.2-5.4-27.2c0-0.2,0-0.4-0.1-0.6c1.6,0,3.2,0,4.7,0c0.1,0,0.3,0.2,0.4,0.4
		c0.7,4.2,1.5,8.4,2.2,12.5c0.6,3.4,1.1,6.7,1.6,10.1c0,0.1,0.1,0.2,0.1,0.3c0.1,0,0.1,0,0.2,0c0.8-3.9,1.7-7.8,2.6-11.7
		C197.6,203.5,198.5,199.7,199.5,195.7z"/>
	
		<linearGradient id="SVGID_00000096026614961893561250000008692531460159130547_" gradientUnits="userSpaceOnUse" x1="158.4164" y1="7.3128" x2="157.7035" y2="228.6593">
		<stop  offset="0" style="stop-color:#EF7167"/>
		<stop  offset="0.2622" style="stop-color:#EA6F66"/>
		<stop  offset="0.5732" style="stop-color:#DC6A63"/>
		<stop  offset="0.7368" style="stop-color:#D16661"/>
	</linearGradient>
	<path style="fill:url(#SVGID_00000096026614961893561250000008692531460159130547_);" d="M158,23.2c1.4,0.8,2.9,1.6,4.2,2.6
		c7.1,4.7,12.5,10.8,15.9,18.7c1.6,3.8,2.6,7.9,3,12c0.6,6,0,11.8-1.3,17.7c-2.3,10.5-6.3,20.3-11.3,29.8
		c-7.5,14.4-16.7,27.8-27.5,40c-1.7,2-3.6,3.8-5.4,5.7c-0.2,0.2-0.5,0.4-0.8,0.6c0.2-0.3,0.4-0.5,0.6-0.8
		c6.1-7.7,11.8-15.5,17.1-23.7c6.5-10.1,12.4-20.6,16.9-31.7c2.6-6.4,4.8-12.9,6.1-19.7c1.1-5.4,1.8-10.8,1.5-16.3
		c-0.5-10.3-4-19.5-10.9-27.3c-2.4-2.7-5.1-5.1-8.1-7.2c-0.1-0.1-0.2-0.1-0.2-0.2C157.9,23.2,158,23.2,158,23.2z"/>
	
		<linearGradient id="SVGID_00000079459115196118739720000000510461575569076898_" gradientUnits="userSpaceOnUse" x1="90.3438" y1="7.0935" x2="89.6309" y2="228.4401">
		<stop  offset="0" style="stop-color:#EF7167"/>
		<stop  offset="0.2622" style="stop-color:#EA6F66"/>
		<stop  offset="0.5732" style="stop-color:#DC6A63"/>
		<stop  offset="0.7368" style="stop-color:#D16661"/>
	</linearGradient>
	<path style="fill:url(#SVGID_00000079459115196118739720000000510461575569076898_);" d="M113.2,150.3c-1.9-1.9-3.8-3.8-5.6-5.8
		c-12-13.6-22.2-28.5-30.2-44.8c-3.6-7.4-6.5-15-8.5-22.9c-1.3-5.1-2.2-10.3-2.2-15.7c0.1-12.1,4.4-22.4,13.2-30.7
		c2.9-2.7,6.1-5,9.6-6.8c0.2-0.1,0.3-0.2,0.5-0.2c-0.4,0.3-0.8,0.6-1.3,1c-6,4.6-10.8,10.2-13.9,17.2c-1.7,3.7-2.8,7.5-3.4,11.5
		c-0.5,3.5-0.7,7-0.4,10.6c0.5,7.2,2,14.3,4.2,21.1c3.4,10.3,8,20.1,13.4,29.5c7,12.3,15.1,23.9,23.9,35c0.2,0.3,0.5,0.6,0.7,0.9
		C113.3,150.2,113.2,150.2,113.2,150.3z"/>
	
		<linearGradient id="SVGID_00000044884974381794947690000014308622347864241573_" gradientUnits="userSpaceOnUse" x1="151.6682" y1="7.291" x2="150.9554" y2="228.6376">
		<stop  offset="0" style="stop-color:#EF7167"/>
		<stop  offset="0.2622" style="stop-color:#EA6F66"/>
		<stop  offset="0.5732" style="stop-color:#DC6A63"/>
		<stop  offset="0.7368" style="stop-color:#D16661"/>
	</linearGradient>
	<path style="fill:url(#SVGID_00000044884974381794947690000014308622347864241573_);" d="M140.5,224c0-9.5,0-18.9,0-28.3
		c0.2,0,0.4,0,0.5,0c3,0,6,0,9,0c1.6,0,3.3,0.2,4.9,0.7c3.4,1,5.2,3.4,5.4,6.9c0.2,3.3-0.7,6.2-3.7,8c-0.6,0.4-1.2,0.6-1.9,1
		c2.2,3.9,4.4,7.8,6.7,11.7c-0.3,0-0.4,0-0.6,0c-1.4,0-2.8,0-4.3,0c-0.5,0-0.7-0.1-1-0.6c-1.8-3.4-3.7-6.7-5.5-10
		c-0.2-0.4-0.5-0.6-0.9-0.5c-1.1,0-2.1,0-3.2,0c-0.5,0-0.6,0.2-0.6,0.7c0,3.2,0,6.5,0,9.7c0,0.8,0,0.8-0.8,0.8
		C143.3,224,141.9,224,140.5,224z M145.5,208.9c0.1,0,0.2,0.1,0.2,0.1c1.7,0,3.4,0.1,5,0c2.7-0.2,5.1-1.5,4.8-5.4
		c-0.1-1.5-0.8-2.7-2.3-3.3c-0.5-0.2-1-0.4-1.5-0.4c-1.9-0.1-3.8-0.1-5.7-0.2c-0.5,0-0.7,0.2-0.7,0.7c0,2.7,0,5.3,0,8
		C145.4,208.5,145.5,208.7,145.5,208.9z"/>
	
		<linearGradient id="SVGID_00000173148466369061098870000013521658459894540179_" gradientUnits="userSpaceOnUse" x1="126.7495" y1="7.2108" x2="126.0366" y2="228.5573">
		<stop  offset="0" style="stop-color:#EF7167"/>
		<stop  offset="0.2622" style="stop-color:#EA6F66"/>
		<stop  offset="0.5732" style="stop-color:#DC6A63"/>
		<stop  offset="0.7368" style="stop-color:#D16661"/>
	</linearGradient>
	<path style="fill:url(#SVGID_00000173148466369061098870000013521658459894540179_);" d="M115.4,209.9c0-4.5,0-9,0-13.4
		c0-0.6,0.1-0.7,0.7-0.7c2.4,0,4.8,0,7.1,0c1.9,0,3.7,0.3,5.5,0.9c3.6,1.3,6.1,3.7,7.2,7.4c1.2,4.1,1.2,8.3-0.3,12.3
		c-1.6,4.3-4.8,6.7-9.3,7.4c-1.5,0.2-3,0.2-4.5,0.3c-1.9,0-3.8,0-5.7,0c-0.8,0-0.8,0-0.8-0.8C115.4,218.8,115.4,214.3,115.4,209.9z
		 M120.4,199.8c0,0.2,0,0.4,0,0.5c0,6.4,0,12.8,0,19.2c0,0.5,0.2,0.6,0.6,0.6c1,0,2.1,0,3.1-0.1c3.3-0.2,6-2.2,6.9-5.4
		c0.9-3.1,0.9-6.2,0.1-9.3c-0.6-2.3-2.1-3.9-4.3-4.8C124.8,199.6,122.6,199.7,120.4,199.8z"/>
	
		<linearGradient id="SVGID_00000134943063873990602470000012883546471754567609_" gradientUnits="userSpaceOnUse" x1="175.6321" y1="7.3682" x2="174.9192" y2="228.7148">
		<stop  offset="0" style="stop-color:#EF7167"/>
		<stop  offset="0.2622" style="stop-color:#EA6F66"/>
		<stop  offset="0.5732" style="stop-color:#DC6A63"/>
		<stop  offset="0.7368" style="stop-color:#D16661"/>
	</linearGradient>
	<path style="fill:url(#SVGID_00000134943063873990602470000012883546471754567609_);" d="M162.8,224c0.6-1.9,1.2-3.8,1.8-5.6
		c2.4-7.4,4.8-14.8,7.2-22.2c0.1-0.4,0.3-0.5,0.7-0.5c1.6,0,3.2,0,4.8,0c0.4,0,0.5,0.1,0.6,0.5c3,9.1,5.9,18.3,8.9,27.4
		c0,0.1,0.1,0.3,0.1,0.5c-1.4,0-2.7,0-4.1,0c-1.1,0-1.1,0-1.4-1c-0.6-2-1.2-4.1-1.8-6.1c-0.1-0.4-0.3-0.6-0.7-0.6
		c-2.8,0-5.7,0-8.5,0c-0.4,0-0.6,0.2-0.7,0.6c-0.6,2.2-1.3,4.4-1.9,6.6c-0.1,0.4-0.2,0.6-0.7,0.5C165.8,224,164.4,224,162.8,224z
		 M174.9,199.6c0,0-0.1,0-0.1,0c-1.2,4.3-2.4,8.6-3.5,12.9c2.4,0,4.8,0,7.3,0C177.3,208.1,176.1,203.9,174.9,199.6z"/>
	
		<linearGradient id="SVGID_00000068676725448591920040000001676083864253936045_" gradientUnits="userSpaceOnUse" x1="124.2566" y1="7.2028" x2="123.5438" y2="228.5493">
		<stop  offset="0" style="stop-color:#EF7167"/>
		<stop  offset="0.2622" style="stop-color:#EA6F66"/>
		<stop  offset="0.5732" style="stop-color:#DC6A63"/>
		<stop  offset="0.7368" style="stop-color:#D16661"/>
	</linearGradient>
	<path style="fill:url(#SVGID_00000068676725448591920040000001676083864253936045_);" d="M135.4,160.1c-0.4,1.8-0.8,3.5-1.2,5.2
		c-0.6,2.8-1.3,5.7-1.9,8.5c-0.1,0.4-0.2,0.5-0.6,0.5c-5.4,0-10.8,0-16.2,0c-0.4,0-0.5-0.2-0.6-0.5c-1-4.4-1.9-8.8-2.9-13.1
		c0-0.1,0-0.3,0-0.5C119.9,160.1,127.6,160.1,135.4,160.1z"/>
	
		<linearGradient id="SVGID_00000075138034819166576440000012892318060583827328_" gradientUnits="userSpaceOnUse" x1="56.6082" y1="6.9849" x2="55.8953" y2="228.3314">
		<stop  offset="0" style="stop-color:#EF7167"/>
		<stop  offset="0.2622" style="stop-color:#EA6F66"/>
		<stop  offset="0.5732" style="stop-color:#DC6A63"/>
		<stop  offset="0.7368" style="stop-color:#D16661"/>
	</linearGradient>
	<path style="fill:url(#SVGID_00000075138034819166576440000012892318060583827328_);" d="M66.1,213.3c0,3.2-0.8,5.9-2.8,8.2
		c-4.4,4.8-12.5,4-15.7-1.7c-2.3-4.1-2.3-8.4,0-12.5c2-3.5,5.2-5.2,9.2-4.9c4.1,0.3,6.9,2.6,8.5,6.4
		C65.9,210.2,66.1,211.8,66.1,213.3z M51,213.4c0,1.6,0.2,3.1,0.9,4.5c0.8,1.6,2.1,2.6,4,2.6c2,0,3.3-0.9,4.2-2.6
		c0.7-1.3,0.9-2.7,1-4.2c0-1.7-0.1-3.4-1-5c-0.9-1.6-2.2-2.6-4.2-2.5c-1.9,0-3.2,1-4,2.6C51.2,210.3,50.9,211.9,51,213.4z"/>
	
		<linearGradient id="SVGID_00000109727969361615563420000000435596703503794335_" gradientUnits="userSpaceOnUse" x1="92.1628" y1="7.0994" x2="91.45" y2="228.4459">
		<stop  offset="0" style="stop-color:#EF7167"/>
		<stop  offset="0.2622" style="stop-color:#EA6F66"/>
		<stop  offset="0.5732" style="stop-color:#DC6A63"/>
		<stop  offset="0.7368" style="stop-color:#D16661"/>
	</linearGradient>
	<path style="fill:url(#SVGID_00000109727969361615563420000000435596703503794335_);" d="M87.1,214.7c-0.2,2.3,1.7,5,4,5.7
		c2.1,0.7,4.2,0.4,6.1-0.6c0.3-0.2,0.7-0.4,1.1-0.6c0.5,1,1.1,2,1.6,3c-1.5,1-3,1.6-4.7,2c-2.3,0.5-4.6,0.4-6.8-0.6
		c-3.6-1.6-5.5-4.5-6-8.3c-0.4-2.8-0.1-5.5,1.4-8c2-3.5,5-5.2,9-5.1c3.9,0.2,6.8,2.8,7.7,6.8c0.4,1.7,0.4,3.4,0.2,5.1
		c-0.1,0.4-0.3,0.5-0.7,0.5c-4,0-8.1,0-12.1,0C87.6,214.7,87.4,214.7,87.1,214.7z M87,211.5c0.3,0,0.5,0,0.7,0c2.4,0,4.9,0,7.3,0
		c1.6,0,1.6,0,1.4-1.6c-0.4-2.8-2.6-4.3-5.4-3.7C88.8,206.7,87.2,208.8,87,211.5z"/>
	
		<linearGradient id="SVGID_00000141430773641759005740000014533443507733652621_" gradientUnits="userSpaceOnUse" x1="108.7668" y1="7.1529" x2="108.054" y2="228.4994">
		<stop  offset="0" style="stop-color:#EF7167"/>
		<stop  offset="0.2622" style="stop-color:#EA6F66"/>
		<stop  offset="0.5732" style="stop-color:#DC6A63"/>
		<stop  offset="0.7368" style="stop-color:#D16661"/>
	</linearGradient>
	<path style="fill:url(#SVGID_00000141430773641759005740000014533443507733652621_);" d="M111.2,220.6c0.2,1.1,0.4,2.2,0.6,3.3
		c0,0.1-0.2,0.4-0.3,0.5c-1.5,0.4-3,0.5-4.4-0.1c-1.2-0.5-1.8-1.5-2.2-2.6c-0.2-0.7-0.4-1.5-0.4-2.3c0-7.7,0-15.3,0-23
		c0-0.4,0.1-0.6,0.6-0.5c1.2,0,2.4,0,3.6,0c0.5,0,0.7,0.2,0.7,0.7c0,7.3,0,14.6,0,21.8c0,0.3,0,0.7,0.1,1c0.1,1,0.5,1.3,1.5,1.3
		C110.9,220.6,111,220.6,111.2,220.6z"/>
	
		<linearGradient id="SVGID_00000056401119586794811360000008646651052859784589_" gradientUnits="userSpaceOnUse" x1="76.2042" y1="7.048" x2="75.4913" y2="228.3945">
		<stop  offset="0" style="stop-color:#EF7167"/>
		<stop  offset="0.2622" style="stop-color:#EA6F66"/>
		<stop  offset="0.5732" style="stop-color:#DC6A63"/>
		<stop  offset="0.7368" style="stop-color:#D16661"/>
	</linearGradient>
	<path style="fill:url(#SVGID_00000056401119586794811360000008646651052859784589_);" d="M81.3,206.9c-0.6-0.1-1.2-0.2-1.7-0.2
		c-1.6-0.1-3,0.5-4,1.8c-0.6,0.7-1,1.6-1.5,2.4c-0.1,0.2-0.1,0.5-0.1,0.7c0,3.9,0,7.8,0,11.7c0,0.2,0,0.4,0,0.7c-1.7,0-3.2,0-4.9,0
		c0-7,0-14,0-21.2c0.4,0,0.9,0,1.3,0c0.7,0,1.4,0,2.1,0c0.5,0,0.7,0.1,0.7,0.6c0.1,1,0.2,2.1,0.4,3.2c0.1-0.2,0.3-0.3,0.4-0.5
		c1.1-1.7,2.4-3.1,4.4-3.6c1.1-0.3,2.2-0.2,3.3,0.1c0.1,0,0.4,0.3,0.3,0.4C81.8,204.3,81.5,205.6,81.3,206.9z"/>
</g>
<path class="st3" d="M18,150c8.8,1.3,12-4.2,20.3-2c7.3,1.9,6.6,6.8,16.3,12.7c3.4,2.1,13.1,7.3,25,6.2c9-0.9,15.4-5,17.9-6.8
	c16.3-11,13.1-25.2,27.1-31.4c5.1-2.3,14.8-4.5,20.7,0c5,3.8,4.7,10.5,10.3,12.1c3.8,1.1,5.8-1.5,9.3,0.4c2.1,1.1,2,2.3,6.1,7.5
	c1.1,1.4,3,3.9,5.3,6.1c3.8,3.7,7.6,5.6,9.3,6.4c2.6,1.3,12.4,6.2,24.2,3.6c7.2-1.6,11.8-5.2,15.7-8.2c8-6.3,12.6-13.5,15-18.2h5.4
	v111.9H-5.6C-9.2,163.7-5.5,138.9,0,138.1C3.7,137.6,7.1,148.3,18,150z"/>
<g>
	<defs>
		<path id="SVGID_00000158715090746243042590000017923832586401834398_" d="M18,150c8.8,1.3,12-4.2,20.3-2
			c7.3,1.9,6.6,6.8,16.3,12.7c3.4,2.1,13.1,7.3,25,6.2c9-0.9,15.4-5,17.9-6.8c16.3-11,13.1-25.2,27.1-31.4c5.1-2.3,14.8-4.5,20.7,0
			c5,3.8,4.7,10.5,10.3,12.1c3.8,1.1,5.8-1.5,9.3,0.4c2.1,1.1,2,2.3,6.1,7.5c1.1,1.4,3,3.9,5.3,6.1c3.8,3.7,7.6,5.6,9.3,6.4
			c2.6,1.3,12.4,6.2,24.2,3.6c7.2-1.6,11.8-5.2,15.7-8.2c8-6.3,12.6-13.5,15-18.2h5.4v111.9H-5.6C-9.2,163.7-5.5,138.9,0,138.1
			C3.7,137.6,7.1,148.3,18,150z"/>
	</defs>
	<clipPath id="SVGID_00000170269827927951925720000003016145581584637342_">
		<use xlink:href="#SVGID_00000158715090746243042590000017923832586401834398_"  style="overflow:visible;"/>
	</clipPath>
	<g style="clip-path:url(#SVGID_00000170269827927951925720000003016145581584637342_);">
		<path class="st21" d="M22.4,209c0.1-0.9,0.2-1.8,0.4-2.6c0.9-4.2,2.8-7.8,6.8-9.7c4.5-2.2,9-2,13,1.3c0.3,0.3,0.6,0.6,1,0.9
			c-0.9,1.1-1.8,2.1-2.6,3.2c-0.5-0.4-1-0.8-1.5-1.1c-3-2.1-7-1.6-9.5,1.2c-1.5,1.7-2.1,3.7-2.4,5.9c-0.3,2.4-0.2,4.7,0.6,7
			c1,2.8,2.7,4.7,5.7,5.3c2.7,0.5,5-0.4,6.9-2.3c0.2-0.2,0.3-0.3,0.5-0.5c0.9,1,1.7,2,2.7,3.2c-0.4,0.4-0.9,0.7-1.3,1.1
			c-2.5,2.2-5.5,3.1-8.8,2.9c-7-0.6-10.4-5.7-11.3-10.8c-0.2-0.9-0.2-1.8-0.4-2.7C22.4,210.3,22.4,209.6,22.4,209z"/>
		<path class="st21" d="M142.4,63.8c-0.3,4.9-0.4,9.3-0.8,13.7c-0.4,4.3-0.8,8.5-1.4,12.7c-1,7.5-2.4,15-4,22.4
			c-2.8,13-6.2,25.9-10,38.7c-0.2,0.6-0.4,0.8-1,0.7c-1.1-0.1-2.2,0-3.2,0c-0.4,0-0.6-0.1-0.7-0.5c-3.9-13.1-7.5-26.3-10.2-39.7
			c-1.2-5.8-2.3-11.7-3.2-17.6c-0.7-4.2-1.2-8.5-1.6-12.7c-0.8-7.2-1.1-14.4-1-21.7c0.1-7,0.7-14,2.2-20.9c1.1-4.9,2.5-9.6,5-14
			c1.7-3,3.7-5.6,6.6-7.6c3.1-2.1,6.2-2.1,9.3-0.1c2.5,1.6,4.4,3.8,6,6.4c2.7,4.3,4.3,9,5.4,13.8c1.1,4.4,1.8,8.8,2.1,13.3
			C142.1,55.3,142.2,59.8,142.4,63.8z"/>
		<path class="st21" d="M129.4,151.6c1.2-2.2,2.4-4.3,3.5-6.5c8-15.1,14.7-30.7,19.6-47.1c1.9-6.3,3.4-12.6,4.5-19.1
			c0.7-4.3,1.3-8.7,1.4-13.1c0.1-3.3,0.1-6.6-0.2-9.9c-0.7-9.3-3.3-18-8.6-25.8c-3.9-5.8-8.9-10.5-15.2-13.8c-0.3-0.2-0.7-0.3-1-0.6
			c0.6,0.1,1.2,0.2,1.8,0.3c16.5,3.9,27.5,14,33.2,29.9c1.4,3.9,2.1,7.9,2.5,11.9c0.6,5.9,0,11.7-1.2,17.4
			c-2.1,10.2-5.7,19.9-10,29.4c-4.8,10.7-10.3,20.9-16.9,30.6c-3.6,5.3-7.4,10.4-12,14.9c-0.5,0.5-0.9,1-1.3,1.5
			C129.5,151.7,129.5,151.6,129.4,151.6z"/>
		<path class="st21" d="M114.6,15.8c-1.1,0.6-2.2,1.1-3.2,1.8c-7.3,4.5-12.6,10.7-16.4,18.3c-2.5,5-4,10.4-4.8,15.9
			c-0.7,4.8-0.9,9.5-0.6,14.3c0.3,6.3,1.2,12.5,2.5,18.7c3.3,15.5,8.8,30.3,15.3,44.7c3.3,7.4,7,14.6,11,21.6
			c0.1,0.1,0.1,0.2,0.1,0.4c-0.2-0.2-0.4-0.3-0.5-0.5c-4.2-4-7.8-8.5-11.1-13.2c-10.8-15.5-19.3-32.2-25.3-50.1
			c-1.7-4.9-3-10-3.9-15.1c-0.6-3.7-1.1-7.3-0.9-11c0.4-9.7,2.8-18.8,8.3-26.9c4.1-6,9.2-10.9,15.7-14.3c3.9-2.1,8.1-3.5,12.5-4.5
			c0.3-0.1,0.6-0.1,0.9-0.1C114.3,15.8,114.4,15.8,114.6,15.8z"/>
		<path class="st21" d="M199.5,195.7c1.5,0,2.9,0,4.4,0c1.8,7.8,3.6,15.6,5.4,23.4c0,0,0.1,0,0.1,0c0.1-0.7,0.2-1.5,0.4-2.2
			c0.7-4.4,1.4-8.8,2.1-13.2c0.4-2.5,0.9-5,1.3-7.5c0-0.2,0.2-0.5,0.4-0.5c1.5,0,2.9,0,4.4,0c-0.2,1.3-0.5,2.5-0.7,3.7
			c-1.2,6.1-2.3,12.2-3.5,18.2c-0.4,2-0.8,4-1.1,5.9c-0.1,0.4-0.2,0.5-0.6,0.4c-1.7,0-3.5,0-5.2,0c-0.4,0-0.5-0.2-0.6-0.5
			c-1.1-4.5-2.1-9.1-3.2-13.6c-0.5-2.3-0.9-4.6-1.4-6.9c0-0.2-0.1-0.3-0.3-0.5c-0.1,0.2-0.1,0.4-0.2,0.5c-1.5,6.8-3,13.6-4.5,20.3
			c-0.1,0.5-0.3,0.6-0.8,0.6c-1.6,0-3.3,0-4.9,0c-0.4,0-0.5-0.1-0.6-0.5c-1.8-9.1-3.6-18.2-5.4-27.2c0-0.2,0-0.4-0.1-0.6
			c1.6,0,3.2,0,4.7,0c0.1,0,0.3,0.2,0.4,0.4c0.7,4.2,1.5,8.4,2.2,12.5c0.6,3.4,1.1,6.7,1.6,10.1c0,0.1,0.1,0.2,0.1,0.3
			c0.1,0,0.1,0,0.2,0c0.8-3.9,1.7-7.8,2.6-11.7C197.6,203.5,198.5,199.7,199.5,195.7z"/>
		<path class="st21" d="M158,23.2c1.4,0.8,2.9,1.6,4.2,2.6c7.1,4.7,12.5,10.8,15.9,18.7c1.6,3.8,2.6,7.9,3,12c0.6,6,0,11.8-1.3,17.7
			c-2.3,10.5-6.3,20.3-11.3,29.8c-7.5,14.4-16.7,27.8-27.5,40c-1.7,2-3.6,3.8-5.4,5.7c-0.2,0.2-0.5,0.4-0.8,0.6
			c0.2-0.3,0.4-0.5,0.6-0.8c6.1-7.7,11.8-15.5,17.1-23.7c6.5-10.1,12.4-20.6,16.9-31.7c2.6-6.4,4.8-12.9,6.1-19.7
			c1.1-5.4,1.8-10.8,1.5-16.3c-0.5-10.3-4-19.5-10.9-27.3c-2.4-2.7-5.1-5.1-8.1-7.2c-0.1-0.1-0.2-0.1-0.2-0.2
			C157.9,23.2,158,23.2,158,23.2z"/>
		<path class="st21" d="M113.2,150.3c-1.9-1.9-3.8-3.8-5.6-5.8c-12-13.6-22.2-28.5-30.2-44.8c-3.6-7.4-6.5-15-8.5-22.9
			c-1.3-5.1-2.2-10.3-2.2-15.7c0.1-12.1,4.4-22.4,13.2-30.7c2.9-2.7,6.1-5,9.6-6.8c0.2-0.1,0.3-0.2,0.5-0.2c-0.4,0.3-0.8,0.6-1.3,1
			c-6,4.6-10.8,10.2-13.9,17.2c-1.7,3.7-2.8,7.5-3.4,11.5c-0.5,3.5-0.7,7-0.4,10.6c0.5,7.2,2,14.3,4.2,21.1
			c3.4,10.3,8,20.1,13.4,29.5c7,12.3,15.1,23.9,23.9,35c0.2,0.3,0.5,0.6,0.7,0.9C113.3,150.2,113.2,150.2,113.2,150.3z"/>
		<path class="st21" d="M140.5,224c0-9.5,0-18.9,0-28.3c0.2,0,0.4,0,0.5,0c3,0,6,0,9,0c1.6,0,3.3,0.2,4.9,0.7c3.4,1,5.2,3.4,5.4,6.9
			c0.2,3.3-0.7,6.2-3.7,8c-0.6,0.4-1.2,0.6-1.9,1c2.2,3.9,4.4,7.8,6.7,11.7c-0.3,0-0.4,0-0.6,0c-1.4,0-2.8,0-4.3,0
			c-0.5,0-0.7-0.1-1-0.6c-1.8-3.4-3.7-6.7-5.5-10c-0.2-0.4-0.5-0.6-0.9-0.5c-1.1,0-2.1,0-3.2,0c-0.5,0-0.6,0.2-0.6,0.7
			c0,3.2,0,6.5,0,9.7c0,0.8,0,0.8-0.8,0.8C143.3,224,141.9,224,140.5,224z M145.5,208.9c0.1,0,0.2,0.1,0.2,0.1c1.7,0,3.4,0.1,5,0
			c2.7-0.2,5.1-1.5,4.8-5.4c-0.1-1.5-0.8-2.7-2.3-3.3c-0.5-0.2-1-0.4-1.5-0.4c-1.9-0.1-3.8-0.1-5.7-0.2c-0.5,0-0.7,0.2-0.7,0.7
			c0,2.7,0,5.3,0,8C145.4,208.5,145.5,208.7,145.5,208.9z"/>
		<path class="st21" d="M115.4,209.9c0-4.5,0-9,0-13.4c0-0.6,0.1-0.7,0.7-0.7c2.4,0,4.8,0,7.1,0c1.9,0,3.7,0.3,5.5,0.9
			c3.6,1.3,6.1,3.7,7.2,7.4c1.2,4.1,1.2,8.3-0.3,12.3c-1.6,4.3-4.8,6.7-9.3,7.4c-1.5,0.2-3,0.2-4.5,0.3c-1.9,0-3.8,0-5.7,0
			c-0.8,0-0.8,0-0.8-0.8C115.4,218.8,115.4,214.3,115.4,209.9z M120.4,199.8c0,0.2,0,0.4,0,0.5c0,6.4,0,12.8,0,19.2
			c0,0.5,0.2,0.6,0.6,0.6c1,0,2.1,0,3.1-0.1c3.3-0.2,6-2.2,6.9-5.4c0.9-3.1,0.9-6.2,0.1-9.3c-0.6-2.3-2.1-3.9-4.3-4.8
			C124.8,199.6,122.6,199.7,120.4,199.8z"/>
		<path class="st21" d="M162.8,224c0.6-1.9,1.2-3.8,1.8-5.6c2.4-7.4,4.8-14.8,7.2-22.2c0.1-0.4,0.3-0.5,0.7-0.5c1.6,0,3.2,0,4.8,0
			c0.4,0,0.5,0.1,0.6,0.5c3,9.1,5.9,18.3,8.9,27.4c0,0.1,0.1,0.3,0.1,0.5c-1.4,0-2.7,0-4.1,0c-1.1,0-1.1,0-1.4-1
			c-0.6-2-1.2-4.1-1.8-6.1c-0.1-0.4-0.3-0.6-0.7-0.6c-2.8,0-5.7,0-8.5,0c-0.4,0-0.6,0.2-0.7,0.6c-0.6,2.2-1.3,4.4-1.9,6.6
			c-0.1,0.4-0.2,0.6-0.7,0.5C165.8,224,164.4,224,162.8,224z M174.9,199.6c0,0-0.1,0-0.1,0c-1.2,4.3-2.4,8.6-3.5,12.9
			c2.4,0,4.8,0,7.3,0C177.3,208.1,176.1,203.9,174.9,199.6z"/>
		<path class="st21" d="M135.4,160.1c-0.4,1.8-0.8,3.5-1.2,5.2c-0.6,2.8-1.3,5.7-1.9,8.5c-0.1,0.4-0.2,0.5-0.6,0.5
			c-5.4,0-10.8,0-16.2,0c-0.4,0-0.5-0.2-0.6-0.5c-1-4.4-1.9-8.8-2.9-13.1c0-0.1,0-0.3,0-0.5C119.9,160.1,127.6,160.1,135.4,160.1z"
			/>
		<path class="st21" d="M66.1,213.3c0,3.2-0.8,5.9-2.8,8.2c-4.4,4.8-12.5,4-15.7-1.7c-2.3-4.1-2.3-8.4,0-12.5c2-3.5,5.2-5.2,9.2-4.9
			c4.1,0.3,6.9,2.6,8.5,6.4C65.9,210.2,66.1,211.8,66.1,213.3z M51,213.4c0,1.6,0.2,3.1,0.9,4.5c0.8,1.6,2.1,2.6,4,2.6
			c2,0,3.3-0.9,4.2-2.6c0.7-1.3,0.9-2.7,1-4.2c0-1.7-0.1-3.4-1-5c-0.9-1.6-2.2-2.6-4.2-2.5c-1.9,0-3.2,1-4,2.6
			C51.2,210.3,50.9,211.9,51,213.4z"/>
		<path class="st21" d="M87.1,214.7c-0.2,2.3,1.7,5,4,5.7c2.1,0.7,4.2,0.4,6.1-0.6c0.3-0.2,0.7-0.4,1.1-0.6c0.5,1,1.1,2,1.6,3
			c-1.5,1-3,1.6-4.7,2c-2.3,0.5-4.6,0.4-6.8-0.6c-3.6-1.6-5.5-4.5-6-8.3c-0.4-2.8-0.1-5.5,1.4-8c2-3.5,5-5.2,9-5.1
			c3.9,0.2,6.8,2.8,7.7,6.8c0.4,1.7,0.4,3.4,0.2,5.1c-0.1,0.4-0.3,0.5-0.7,0.5c-4,0-8.1,0-12.1,0C87.6,214.7,87.4,214.7,87.1,214.7z
			 M87,211.5c0.3,0,0.5,0,0.7,0c2.4,0,4.9,0,7.3,0c1.6,0,1.6,0,1.4-1.6c-0.4-2.8-2.6-4.3-5.4-3.7C88.8,206.7,87.2,208.8,87,211.5z"
			/>
		<path class="st21" d="M111.2,220.6c0.2,1.1,0.4,2.2,0.6,3.3c0,0.1-0.2,0.4-0.3,0.5c-1.5,0.4-3,0.5-4.4-0.1
			c-1.2-0.5-1.8-1.5-2.2-2.6c-0.2-0.7-0.4-1.5-0.4-2.3c0-7.7,0-15.3,0-23c0-0.4,0.1-0.6,0.6-0.5c1.2,0,2.4,0,3.6,0
			c0.5,0,0.7,0.2,0.7,0.7c0,7.3,0,14.6,0,21.8c0,0.3,0,0.7,0.1,1c0.1,1,0.5,1.3,1.5,1.3C110.9,220.6,111,220.6,111.2,220.6z"/>
		<path class="st21" d="M81.3,206.9c-0.6-0.1-1.2-0.2-1.7-0.2c-1.6-0.1-3,0.5-4,1.8c-0.6,0.7-1,1.6-1.5,2.4
			c-0.1,0.2-0.1,0.5-0.1,0.7c0,3.9,0,7.8,0,11.7c0,0.2,0,0.4,0,0.7c-1.7,0-3.2,0-4.9,0c0-7,0-14,0-21.2c0.4,0,0.9,0,1.3,0
			c0.7,0,1.4,0,2.1,0c0.5,0,0.7,0.1,0.7,0.6c0.1,1,0.2,2.1,0.4,3.2c0.1-0.2,0.3-0.3,0.4-0.5c1.1-1.7,2.4-3.1,4.4-3.6
			c1.1-0.3,2.2-0.2,3.3,0.1c0.1,0,0.4,0.3,0.3,0.4C81.8,204.3,81.5,205.6,81.3,206.9z"/>
	</g>
</g>
</svg>
