<svg id="Capa_1" data-name="Capa 1" xmlns="http://www.w3.org/2000/svg" viewBox="0 0 58.15 58.15"><defs><style>.cls-1{fill:#0080a6;}.cls-2{fill:#fff;}</style></defs><path class="cls-1" d="M58.15,29.07A29.08,29.08,0,1,0,29.07,58.15h.25V37.86h-7V29.75h7v-6c0-6.93,4.24-10.71,10.43-10.71a56.93,56.93,0,0,1,6.25.32v7.25H41.71c-3.36,0-4,1.6-4,3.95v5.17h8l-1,8.11h-7v19A29.1,29.1,0,0,0,58.15,29.07Z"/><path class="cls-2" d="M44.68,37.86l1-8.11h-8V24.58c0-2.35.66-3.95,4-3.95H46V13.38a56.93,56.93,0,0,0-6.25-.32c-6.19,0-10.43,3.78-10.43,10.71v6h-7v8.11h7V58.14a28.84,28.84,0,0,0,8.37-1.29v-19Z"/></svg>