<svg id="Capa_1" data-name="Capa 1" xmlns="http://www.w3.org/2000/svg" viewBox="0 0 428.07 135.47"><defs><style>.cls-1{fill:#fff;}</style></defs><path class="cls-1" d="M18.14,48.23c8.37-12.18,17-24.72,31.36-32.79,17.69-9.93,31.2-5.86,82-.72,46.18,4.67,69.27,7,87.68,4.28,35.33-5.25,36.1-15.95,69.15-18.54C318.54-1.9,341.65,5.21,361,11.16c34.68,10.66,56.39,17.34,64.15,36.36,7.08,17.36.25,39.31-10.68,53.46-10.05,13-31.07,29.12-142.57,27.8-109.53-1.29-104.9-17-155.41-7.12-40,7.83-71.77,23.35-96.25,5.7-1.11-.8-17.46-13-20-32.79C-1.86,77.32,7.61,63.55,18.14,48.23Z"/></svg>