<?xml version="1.0" encoding="utf-8"?>
<!-- Generator: Adobe Illustrator 26.3.1, SVG Export Plug-In . SVG Version: 6.00 Build 0)  -->
<svg version="1.1" id="Capa_1" xmlns="http://www.w3.org/2000/svg" xmlns:xlink="http://www.w3.org/1999/xlink" x="0px" y="0px"
	 viewBox="0 0 240.4 240.4" style="enable-background:new 0 0 240.4 240.4;" xml:space="preserve">
<style type="text/css">
	.st0{fill:url(#SVGID_1_);}
	.st1{fill:url(#SVGID_00000158720958807728186380000004048462630665060272_);}
	.st2{fill:url(#SVGID_00000179614254466019074810000008191771499842049442_);}
	.st3{fill:url(#SVGID_00000004515179768847780910000013124020801584055741_);}
	.st4{fill:url(#SVGID_00000011710330193325267630000007104096281578266777_);}
	.st5{fill:#EF7167;}
	.st6{fill:url(#SVGID_00000140731342361278617280000017946685624353809805_);}
	.st7{fill:url(#SVGID_00000163791819011959227730000010800077880799990414_);}
	.st8{fill:url(#SVGID_00000019639751732746967600000007674153831418165377_);}
	.st9{fill:url(#SVGID_00000077326321457983874960000008713616799695632258_);}
	.st10{clip-path:url(#SVGID_00000057868774806223388080000012952218382117730726_);}
	.st11{fill:#FFFFFF;}
</style>
<linearGradient id="SVGID_1_" gradientUnits="userSpaceOnUse" x1="121.0076" y1="195.6762" x2="120.6512" y2="239.1614">
	<stop  offset="0" style="stop-color:#D65751"/>
	<stop  offset="0.7368" style="stop-color:#A84C43"/>
</linearGradient>
<path class="st0" d="M-2.6,214.7c-0.4-1.3,1.8-3.1,2.6-4.7c1.4-2.8,5.5-3.3,12.4-3.9c5.8-0.6,11.6-1.5,17.5-1.6
	c21.3-0.4,23.5-7.5,37.4-5.5c12.6,1.7,10.9,7.5,22.5,8.6c15.2,1.4,17.5-8.6,35.6-8.2c8.9,0.2,14,2.7,20.7-0.9
	c4.9-2.7,4.7-5.4,10.2-8.2c0.6-0.3,9.5-4.7,19.1-1.6c6.1,2,5.5,4.8,14.8,10.3c3.4,2,8.8,5.2,16.4,6.8c6.8,1.4,9.2,0,15.9,0.4
	c5.3,0.3,12.8,1.7,21.7,6.6v33H-1.7L-2.6,214.7z"/>
<g>
	
		<linearGradient id="SVGID_00000055675193357442312730000007962833504312550285_" gradientUnits="userSpaceOnUse" x1="120.5093" y1="14.3454" x2="119.5588" y2="385.5137">
		<stop  offset="0" style="stop-color:#EF7167"/>
		<stop  offset="0.2622" style="stop-color:#EA6F66"/>
		<stop  offset="0.5732" style="stop-color:#DC6A63"/>
		<stop  offset="0.7368" style="stop-color:#D16661"/>
	</linearGradient>
	<path style="fill:url(#SVGID_00000055675193357442312730000007962833504312550285_);" d="M196.3,106.6h14.2c3.5,0,4.4,0.9,4.4,4.4
		v79.3c0,0.3,0,0.6,0,0.9c-0.1,3-1,3.9-3.9,3.9c-4.3,0-8.6,0-12.9,0h-1.8v7.8c0,5.7,0,11.4,0,17.1c0,3.7-1.7,5.5-5.4,5.5H49.5
		c-3.8,0-5.5-1.7-5.5-5.6v-24.8h-6.2c-2.9,0-5.8,0-8.6,0c-2.7,0-3.8-1.1-3.8-3.7c0-23,0-46,0-69c0-4,0-8.1,0-12.1
		c0-2.6,1.1-3.7,3.7-3.7H44v-2.4c0-28,0-56-0.1-84.1c0-3.3,1.9-5.2,5.1-5.2h76.8c11.5,0,23.1,0,34.6-0.1c1.9,0,3.8,0.8,5.1,2.2
		c9.5,9.6,19,19.1,28.6,28.5c1.5,1.4,2.3,3.4,2.2,5.4c0,17.9,0,35.8,0,53.7L196.3,106.6z M186.9,106.6V52.7c-3.6,0-7.1,0-10.5,0
		c-8.4-0.1-16-6-17.4-14.4c-0.7-4-0.4-8.1-0.5-12.2c0-0.6,0-1.3,0-1.9h-105v82.3L186.9,106.6z M186.9,195.3H53.4v20.9H187
		L186.9,195.3z M119.9,170.4h7.2v-29.7c0.3,0.4,0.6,0.8,0.7,1.3c2.3,9.1,4.6,18.1,6.8,27.2c0.2,1,0.6,1.3,1.6,1.3
		c1.7-0.1,3.3-0.1,5,0c1.1,0,1.5-0.4,1.7-1.4c1.7-7,3.5-14,5.3-20.9l1.9-7.6l0.4,0.1v29.7h7.1v-39.2c-3.5,0-6.9,0-10.2,0
		c-1.1,0-1.6,0.3-1.9,1.5c-2,7.9-4.1,15.9-6.2,23.8c-0.1,0.4-0.2,0.7-0.4,1.3c-0.2-0.7-0.3-1.1-0.5-1.6c-2-7.7-4.1-15.4-6.1-23.1
		c-0.4-1.4-0.9-2-2.4-1.9c-2.8,0.1-5.5,0-8.3,0c-0.5,0-1.1,0.1-1.6,0.1L119.9,170.4z M54.6,146.7v-15.3h-7.8v39.1h8v-16.9h15.4v17
		h7.9v-39.2h-7.9v15.3H54.6z M95.3,137.9v32.5h7.9v-32.6h11.5v-6.5h-31v6.6H95.3z M166,131.7v38.8h27.6v-6.5h-19.8v-32.3H166z"/>
	
		<linearGradient id="SVGID_00000126310414555433443530000003193558869018011022_" gradientUnits="userSpaceOnUse" x1="120.3649" y1="14.345" x2="119.4144" y2="385.5134">
		<stop  offset="0" style="stop-color:#EF7167"/>
		<stop  offset="0.2622" style="stop-color:#EA6F66"/>
		<stop  offset="0.5732" style="stop-color:#DC6A63"/>
		<stop  offset="0.7368" style="stop-color:#D16661"/>
	</linearGradient>
	<path style="fill:url(#SVGID_00000126310414555433443530000003193558869018011022_);" d="M165.2,75.9H75.2v-7.7h5
		c24.1,0,48.3,0,72.4,0c3.7,0,7.5,0,11.2,0c1,0,1.3,0.3,1.3,1.3C165.1,71.6,165.2,73.7,165.2,75.9z"/>
	
		<linearGradient id="SVGID_00000059303396500752615070000012055650808511273402_" gradientUnits="userSpaceOnUse" x1="120.375" y1="14.3451" x2="119.4245" y2="385.5134">
		<stop  offset="0" style="stop-color:#EF7167"/>
		<stop  offset="0.2622" style="stop-color:#EA6F66"/>
		<stop  offset="0.5732" style="stop-color:#DC6A63"/>
		<stop  offset="0.7368" style="stop-color:#D16661"/>
	</linearGradient>
	<path style="fill:url(#SVGID_00000059303396500752615070000012055650808511273402_);" d="M165.1,86.7v7.6H75.3v-7.6H165.1z"/>
	
		<linearGradient id="SVGID_00000103977895999798565410000010038631551677354638_" gradientUnits="userSpaceOnUse" x1="107.0319" y1="14.3109" x2="106.0814" y2="385.4792">
		<stop  offset="0" style="stop-color:#EF7167"/>
		<stop  offset="0.2622" style="stop-color:#EA6F66"/>
		<stop  offset="0.5732" style="stop-color:#DC6A63"/>
		<stop  offset="0.7368" style="stop-color:#D16661"/>
	</linearGradient>
	<path style="fill:url(#SVGID_00000103977895999798565410000010038631551677354638_);" d="M138.7,49.9v7.7H75.2v-6.8
		c0-1.1,0.8-0.8,1.4-0.8L138.7,49.9L138.7,49.9z"/>
</g>
<path class="st5" d="M0,210c1.8,2,4.5,4.4,8.3,6.1c2.2,1,5,2.2,8.6,1.8c0.9-0.1,4.2-0.5,7.1-2.9c2.6-2,2.3-3.5,4.3-4.3
	c2.2-0.8,3.7,0.6,7.1,1.1c0,0,3.4,0.5,8.6-1.1c8.4-2.6,7.8-11.5,18.5-20c2.6-2.1,6.1-4.8,11.4-6.1c7.1-1.7,13.3,0.3,20.3,2.5
	c6,1.9,9.1,2.9,11,5.3c3.4,4.2,2.8,9.5,6.4,10.7c1.7,0.6,2.6-0.5,5,0.4c2.2,0.7,3.3,2.2,4.6,3.6c0,0,3.6,3.7,8.2,5.7
	c3.3,1.5,7.6,0.5,16-1.4c8.7-2,10-3.3,14.3-2.9c2.7,0.3,5,1.2,9.6,3.2c10.6,4.5,10.3,6.1,16,7.8c2.8,0.8,9.5,2.9,17.1,1.1
	c4.5-1.1,5.8-2.6,11-3.2c4.6-0.5,6.6,0.3,10,0.4c4,0,9.7-1.2,16.7-6.8h7.1v35.3H-8.8v-36.7L0,210z"/>
<rect x="368.6" y="48" class="st5" width="240.4" height="240.4"/>
<linearGradient id="SVGID_00000108272288707300674480000014694626477357713561_" gradientUnits="userSpaceOnUse" x1="513.3954" y1="-115.5921" x2="512.4449" y2="15.5762">
	<stop  offset="0" style="stop-color:#D65751"/>
	<stop  offset="0.7368" style="stop-color:#A84C43"/>
</linearGradient>
<path style="fill:url(#SVGID_00000108272288707300674480000014694626477357713561_);" d="M392.4-90.9c0.8-0.4,2.1-1,3.7-1.7
	c20.2-9.2,22.4-10.7,26.5-11.6c9-2.1,10.4,2.2,22.6,2.9c17.3,0.9,18.7-7.8,44-12.1c20.4-3.5,30.9,0.2,34.6,1.7
	c5.1,2.1,4.6,2.9,11.1,5.9c5,2.3,18,8.4,32.8,6.8c13.5-1.4,16.6-8.3,25.6-5.6c6.8,2,5.6,6,13.4,8.7c9.3,3.2,14.6-1.1,22.6,3.2
	c3.6,2,5.7,4.6,7.2,6.7c11.2,14.5,4.7,40,3.8,43.5c0,0,11.9,105,10.9,105S373,59.9,373,59.9L392.4-90.9z"/>
<g>
	
		<linearGradient id="SVGID_00000108268056438160813400000001910244104844694708_" gradientUnits="userSpaceOnUse" x1="437.3809" y1="-1.3021" x2="436.4304" y2="206.381">
		<stop  offset="0" style="stop-color:#EF7167"/>
		<stop  offset="0.2622" style="stop-color:#EA6F66"/>
		<stop  offset="0.5732" style="stop-color:#DC6A63"/>
		<stop  offset="0.7368" style="stop-color:#D16661"/>
	</linearGradient>
	<path style="fill:url(#SVGID_00000108268056438160813400000001910244104844694708_);" d="M329.4,212.8V2.9h215v209.9H329.4z
		 M339.6,203.5h195.1V12.8H339.6V203.5z"/>
	
		<linearGradient id="SVGID_00000075854760066563353720000000689775209772550023_" gradientUnits="userSpaceOnUse" x1="416.2008" y1="-1.3991" x2="415.2503" y2="206.2841">
		<stop  offset="0" style="stop-color:#EF7167"/>
		<stop  offset="0.2622" style="stop-color:#EA6F66"/>
		<stop  offset="0.5732" style="stop-color:#DC6A63"/>
		<stop  offset="0.7368" style="stop-color:#D16661"/>
	</linearGradient>
	<path style="fill:url(#SVGID_00000075854760066563353720000000689775209772550023_);" d="M386.1,63c9-1.6,18.1-2.2,27.2-1.7
		c5.1,0.2,10.1,1,14.9,2.4c9.5,2.9,15.4,9.4,16.9,19.4c1.6,10.6-0.6,20.1-9.5,27.1c-5.7,4.5-12.4,6.5-19.4,7.1
		c-4.6,0.4-9.4,0.1-14.3,0.1v33.1h-16L386.1,63z M402,89.3c0,4.4,0,8.8,0,13.2c0,1.4,0.3,2.2,1.8,2.2c4.1-0.1,8.4,0.3,12.4-0.3
		c8-1.2,12.5-6.5,13.2-14.5c0.7-7.2-2.9-12.8-9.7-15.1c-5.2-1.8-10.6-1.4-16-0.8c-1.5,0.2-1.8,0.8-1.8,2.2C402,80.6,402,85,402,89.3
		z"/>
	
		<linearGradient id="SVGID_00000157280099055545513560000006126637817366945213_" gradientUnits="userSpaceOnUse" x1="471.2141" y1="-1.1473" x2="470.2635" y2="206.5359">
		<stop  offset="0" style="stop-color:#EF7167"/>
		<stop  offset="0.2622" style="stop-color:#EA6F66"/>
		<stop  offset="0.5732" style="stop-color:#DC6A63"/>
		<stop  offset="0.7368" style="stop-color:#D16661"/>
	</linearGradient>
	<path style="fill:url(#SVGID_00000157280099055545513560000006126637817366945213_);" d="M490.5,89l-2.9,10.7
		c-4.1-1-7.9-2.2-11.8-2.8c-2.2-0.2-4.4,0-6.5,0.6c-2.5,0.5-4.3,2.7-4.4,5.2c-0.4,2.5,0.9,5,3.2,6.1c3.5,1.8,7.2,3.2,10.8,4.7
		c5.1,2.2,9.8,5,12.4,10.2c4.7,9.2,1.1,20.4-8.1,25.1c-0.6,0.3-1.3,0.6-2,0.9c-10.8,4.1-21.6,3.3-32.1-1.3c-0.6-0.2-1.3-1.2-1.2-1.7
		c0.8-3.5,1.8-7,2.8-10.7c4.6,2.6,9.8,4.1,15.1,4.4c2.2,0.1,4.4-0.1,6.5-0.6c2.6-0.6,4.7-2.3,5.1-5.2c0.5-3.3-0.6-6-3.6-7.5
		c-3.4-1.7-6.9-3-10.4-4.5c-4.4-1.9-8.4-4.3-11.2-8.2c-5.7-8-2.9-19.8,6.1-25.3C466.8,83.7,481.6,83.7,490.5,89z"/>
</g>
<path class="st5" d="M0,210c1.8,2,4.5,4.4,8.3,6.1c2.2,1,5,2.2,8.6,1.8c0.9-0.1,4.2-0.5,7.1-2.9c2.6-2,2.3-3.5,4.3-4.3
	c2.2-0.8,3.7,0.6,7.1,1.1c0,0,3.4,0.5,8.6-1.1c8.4-2.6,7.8-11.5,18.5-20c2.6-2.1,6.1-4.8,11.4-6.1c7.1-1.7,13.3,0.3,20.3,2.5
	c6,1.9,9.1,2.9,11,5.3c3.4,4.2,2.8,9.5,6.4,10.7c1.7,0.6,2.6-0.5,5,0.4c2.2,0.7,3.3,2.2,4.6,3.6c0,0,3.6,3.7,8.2,5.7
	c3.3,1.5,7.6,0.5,16-1.4c8.7-2,10-3.3,14.3-2.9c2.7,0.3,5,1.2,9.6,3.2c10.6,4.5,10.3,6.1,16,7.8c2.8,0.8,9.5,2.9,17.1,1.1
	c4.5-1.1,5.8-2.6,11-3.2c4.6-0.5,6.6,0.3,10,0.4c4,0,9.7-1.2,16.7-6.8h7.1v35.3H-8.8v-36.7L0,210z"/>
<g>
	<defs>
		<path id="SVGID_00000035514664965597390820000009828423896804370587_" d="M0,210c1.8,2,4.5,4.4,8.3,6.1c2.2,1,5,2.2,8.6,1.8
			c0.9-0.1,4.2-0.5,7.1-2.9c2.6-2,2.3-3.5,4.3-4.3c2.2-0.8,3.7,0.6,7.1,1.1c0,0,3.4,0.5,8.6-1.1c8.4-2.6,7.8-11.5,18.5-20
			c2.6-2.1,6.1-4.8,11.4-6.1c7.1-1.7,13.3,0.3,20.3,2.5c6,1.9,9.1,2.9,11,5.3c3.4,4.2,2.8,9.5,6.4,10.7c1.7,0.6,2.6-0.5,5,0.4
			c2.2,0.7,3.3,2.2,4.6,3.6c0,0,3.6,3.7,8.2,5.7c3.3,1.5,7.6,0.5,16-1.4c8.7-2,10-3.3,14.3-2.9c2.7,0.3,5,1.2,9.6,3.2
			c10.6,4.5,10.3,6.1,16,7.8c2.8,0.8,9.5,2.9,17.1,1.1c4.5-1.1,5.8-2.6,11-3.2c4.6-0.5,6.6,0.3,10,0.4c4,0,9.7-1.2,16.7-6.8h7.1
			v35.3H-8.8v-36.7L0,210z"/>
	</defs>
	<clipPath id="SVGID_00000096031978626357900510000011090520681098729134_">
		<use xlink:href="#SVGID_00000035514664965597390820000009828423896804370587_"  style="overflow:visible;"/>
	</clipPath>
	<g style="clip-path:url(#SVGID_00000096031978626357900510000011090520681098729134_);">
		<path class="st11" d="M196.3,106.6h14.2c3.5,0,4.4,0.9,4.4,4.4v79.3c0,0.3,0,0.6,0,0.9c-0.1,3-1,3.9-3.9,3.9c-4.3,0-8.6,0-12.9,0
			h-1.8v7.8c0,5.7,0,11.4,0,17.1c0,3.7-1.7,5.5-5.4,5.5H49.5c-3.8,0-5.5-1.7-5.5-5.6v-24.8h-6.2c-2.9,0-5.8,0-8.6,0
			c-2.7,0-3.8-1.1-3.8-3.7c0-23,0-46,0-69c0-4,0-8.1,0-12.1c0-2.6,1.1-3.7,3.7-3.7H44v-2.4c0-28,0-56-0.1-84.1
			c0-3.3,1.9-5.2,5.1-5.2h76.8c11.5,0,23.1,0,34.6-0.1c1.9,0,3.8,0.8,5.1,2.2c9.5,9.6,19,19.1,28.6,28.5c1.5,1.4,2.3,3.4,2.2,5.4
			c0,17.9,0,35.8,0,53.7L196.3,106.6z M186.9,106.6V52.7c-3.6,0-7.1,0-10.5,0c-8.4-0.1-16-6-17.4-14.4c-0.7-4-0.4-8.1-0.5-12.2
			c0-0.6,0-1.3,0-1.9h-105v82.3L186.9,106.6z M186.9,195.3H53.4v20.9H187L186.9,195.3z M119.9,170.4h7.2v-29.7
			c0.3,0.4,0.6,0.8,0.7,1.3c2.3,9.1,4.6,18.1,6.8,27.2c0.2,1,0.6,1.3,1.6,1.3c1.7-0.1,3.3-0.1,5,0c1.1,0,1.5-0.4,1.7-1.4
			c1.7-7,3.5-14,5.3-20.9l1.9-7.6l0.4,0.1v29.7h7.1v-39.2c-3.5,0-6.9,0-10.2,0c-1.1,0-1.6,0.3-1.9,1.5c-2,7.9-4.1,15.9-6.2,23.8
			c-0.1,0.4-0.2,0.7-0.4,1.3c-0.2-0.7-0.3-1.1-0.5-1.6c-2-7.7-4.1-15.4-6.1-23.1c-0.4-1.4-0.9-2-2.4-1.9c-2.8,0.1-5.5,0-8.3,0
			c-0.5,0-1.1,0.1-1.6,0.1L119.9,170.4z M54.6,146.7v-15.3h-7.8v39.1h8v-16.9h15.4v17h7.9v-39.2h-7.9v15.3H54.6z M95.3,137.9v32.5
			h7.9v-32.6h11.5v-6.5h-31v6.6H95.3z M166,131.7v38.8h27.6v-6.5h-19.8v-32.3H166z"/>
		<path class="st11" d="M165.2,75.9H75.2v-7.7h5c24.1,0,48.3,0,72.4,0c3.7,0,7.5,0,11.2,0c1,0,1.3,0.3,1.3,1.3
			C165.1,71.6,165.2,73.7,165.2,75.9z"/>
		<path class="st11" d="M165.1,86.7v7.6H75.3v-7.6H165.1z"/>
		<path class="st11" d="M138.7,49.9v7.7H75.2v-6.8c0-1.1,0.8-0.8,1.4-0.8L138.7,49.9L138.7,49.9z"/>
	</g>
</g>
</svg>
