<?xml version="1.0" encoding="utf-8"?>
<!-- Generator: Adobe Illustrator 26.3.1, SVG Export Plug-In . SVG Version: 6.00 Build 0)  -->
<svg version="1.1" id="Capa_1" xmlns="http://www.w3.org/2000/svg" xmlns:xlink="http://www.w3.org/1999/xlink" x="0px" y="0px"
	 viewBox="0 0 240.4 240.4" style="enable-background:new 0 0 240.4 240.4;" xml:space="preserve">
<style type="text/css">
	.st0{fill:url(#SVGID_1_);}
	.st1{fill:#EF7167;}
	.st2{fill:url(#SVGID_00000181810196921740962180000009959945186001042049_);}
	.st3{fill:url(#SVGID_00000007422230669975134870000001661338695208601009_);}
	.st4{fill:url(#SVGID_00000132768383755652793640000007314724275288564886_);}
	.st5{fill:url(#SVGID_00000060746538872129800880000001957117443819509663_);}
	.st6{fill:url(#SVGID_00000024719734343465542720000003040627369744125099_);}
	.st7{clip-path:url(#SVGID_00000021837443201696070560000009620174692462660787_);fill:#FFFFFF;}
	.st8{clip-path:url(#SVGID_00000021837443201696070560000009620174692462660787_);fill:#FFFAFA;}
</style>
<linearGradient id="SVGID_1_" gradientUnits="userSpaceOnUse" x1="120.8864" y1="-4.178" x2="120.4111" y2="151.7031">
	<stop  offset="0" style="stop-color:#D65751"/>
	<stop  offset="0.7368" style="stop-color:#A84C43"/>
</linearGradient>
<path class="st0" d="M0,23.6c2.1-1.3,5.1-2.9,9.2-4c2-0.6,7.6-1.9,14.7-1c6.8,0.9,6.6,2.8,12.8,3.6c1.9,0.2,8,0.9,14.5-1.7
	c6.4-2.5,6.2-5.3,11.9-8.1c6.7-3.3,13.3-2.5,20-1.7c2.8,0.3,2.5,0.5,22.1,5.7c3.7,1,9.1,2.3,15.4,1.2c1.4-0.2,6.8-1.3,7.4-4
	c0.3-1.3-0.7-2.3,0-3.8c0.7-1.6,2.6-2.1,2.9-2.1c1.8-0.5,3.7,0.3,6.7,2.4c6.1,4.2,5.7,5.9,9,7.4c3.4,1.5,4.1-0.1,10,1
	c5.7,1.1,5.8,2.7,9.7,3.3c4,0.6,6.7-0.7,15.9-4.5c7.9-3.3,11.9-4.9,13.5-5.5c11.9-3.9,29.5-3.3,38.5,6.4c2.8,3,4.6,6.7,6.2,10
	c2.8,5.7,4.1,10.9,4.8,14.5v201.7h-250L0,23.6z"/>
<path class="st1" d="M0,23.6c0.8,1.8,2.4,5,5.8,7.8c1.3,1.1,4.8,3.9,10.2,4.5c4.8,0.5,8.6-1.1,10-1.7c3.9-1.7,3.9-3.2,6.7-3.6
	c3.9-0.6,5.5,2.3,9.3,2.4c3.6,0,6.2-2.5,9.3-5.5c10.7-10.2,16.1-15.3,21.6-17.3c7.1-2.6,13.6-1.5,16.6-1c4.1,0.7,7.5,1.3,9.7,4
	c2.2,2.7,1.5,5.1,4.3,6.9c1.1,0.7,2.9,1.1,6.4,1.9c3.7,0.8,3.6,0.5,4.8,1c3.5,1.4,3.6,4.4,6.7,7.4c3.3,3.2,7.6,3.9,10.5,4.3
	c5.4,0.8,6.1-1,12.6-0.7c6.2,0.3,6.8,2.1,11.6,2.1c2.5,0,5.4-0.4,14-4.8c13.4-6.7,12.8-8.9,19-10.5c9.6-2.4,18,0.8,19,1.2
	c7.9,3.1,8.7,7.6,15.2,9.3c6.4,1.7,12.6-0.8,17.1-3.3l13.8,3.6l-1,212.7H-3L-6.8,24.8L0,23.6z"/>
<rect x="338" y="47" class="st1" width="240.4" height="240.4"/>
<linearGradient id="SVGID_00000132798324560237630490000017532129925441504152_" gradientUnits="userSpaceOnUse" x1="117.5948" y1="1.4897" x2="119.4958" y2="88.9353">
	<stop  offset="0" style="stop-color:#EF7167"/>
	<stop  offset="0.2622" style="stop-color:#EA6F66"/>
	<stop  offset="0.5732" style="stop-color:#DC6A63"/>
	<stop  offset="0.7368" style="stop-color:#D16661"/>
</linearGradient>
<path style="fill:url(#SVGID_00000132798324560237630490000017532129925441504152_);" d="M12.6,225.1V15.2h215.1v209.9H12.6z
	 M22.6,216.1h195.7V24.8H22.6L22.6,216.1z"/>
<path class="st1" d="M144.7,163.2c-5.7,0-11.1,0-16.4-0.1c-0.6-0.2-1.1-0.6-1.3-1.2c-1.9-5.9-3.8-11.8-5.7-17.6
	c-0.7-2-0.8-4.7-2.2-5.8s-4-0.5-6.1-0.6c-6.7,0-13.5,0-20.2,0c-1.1-0.2-2.1,0.5-2.3,1.6c0,0.1,0,0.1,0,0.2
	c-2.1,7.1-4.3,14.3-6.4,21.4c-0.4,1.5-1.1,2.1-2.7,2.1c-4.8-0.1-9.6,0-14.6,0c0.6-2,1.1-3.7,1.7-5.5c4.4-13.7,8.8-27.5,13.2-41.2
	c4.3-13.5,8.7-27,13-40.5c0.1-1.1,1.2-1.9,2.3-1.8c0,0,0,0,0.1,0c6.2,0.1,12.5,0,18.9,0L144.7,163.2z M116.4,125.8
	c-3.9-12.9-7.8-25.5-11.4-37.7l-11,37.7H116.4z"/>
<path class="st1" d="M151.2,99.1h16.1v64.1h-16.1V99.1z"/>
<path class="st1" d="M159.2,89.7c-5.2,0-9-3.5-9.1-8.6c-0.1-4.9,3.7-8.9,8.6-9c0.1,0,0.3,0,0.4,0c4.8-0.2,8.9,3.4,9.1,8.2
	c0,0.3,0,0.5,0,0.8C168.3,86.2,164.6,89.7,159.2,89.7z"/>
<linearGradient id="SVGID_00000134222693540053509840000001625765778963138976_" gradientUnits="userSpaceOnUse" x1="482.7418" y1="-116.5404" x2="481.7913" y2="14.6279">
	<stop  offset="0" style="stop-color:#D65751"/>
	<stop  offset="0.7368" style="stop-color:#A84C43"/>
</linearGradient>
<path style="fill:url(#SVGID_00000134222693540053509840000001625765778963138976_);" d="M361.8-91.9c0.8-0.4,2.1-1,3.7-1.7
	c20.2-9.2,22.4-10.7,26.5-11.6c9-2.1,10.4,2.2,22.6,2.9c17.3,0.9,18.7-7.8,44-12.1c20.4-3.5,30.9,0.2,34.6,1.7
	c5.1,2.1,4.6,2.9,11.1,5.9c5,2.3,18,8.4,32.8,6.8c13.5-1.4,16.6-8.3,25.6-5.6c6.8,2,5.6,6,13.4,8.7c9.3,3.2,14.6-1.1,22.6,3.2
	c3.6,2,5.7,4.6,7.2,6.7c11.2,14.5,4.7,40,3.8,43.5c0,0,11.9,105,10.9,105S342.3,59,342.3,59L361.8-91.9z"/>
<g>
	
		<linearGradient id="SVGID_00000167383319886609002390000000295788114769383606_" gradientUnits="userSpaceOnUse" x1="406.7273" y1="-2.2504" x2="405.7768" y2="205.4328">
		<stop  offset="0" style="stop-color:#EF7167"/>
		<stop  offset="0.2622" style="stop-color:#EA6F66"/>
		<stop  offset="0.5732" style="stop-color:#DC6A63"/>
		<stop  offset="0.7368" style="stop-color:#D16661"/>
	</linearGradient>
	<path style="fill:url(#SVGID_00000167383319886609002390000000295788114769383606_);" d="M298.7,211.9V2h215.1v209.9H298.7z
		 M308.9,202.5h195.1V11.8H308.9V202.5z"/>
	
		<linearGradient id="SVGID_00000111878685186924372450000008029641915505897866_" gradientUnits="userSpaceOnUse" x1="385.5472" y1="-2.3474" x2="384.5967" y2="205.3358">
		<stop  offset="0" style="stop-color:#EF7167"/>
		<stop  offset="0.2622" style="stop-color:#EA6F66"/>
		<stop  offset="0.5732" style="stop-color:#DC6A63"/>
		<stop  offset="0.7368" style="stop-color:#D16661"/>
	</linearGradient>
	<path style="fill:url(#SVGID_00000111878685186924372450000008029641915505897866_);" d="M355.4,62c9-1.6,18.1-2.2,27.2-1.7
		c5.1,0.2,10.1,1,14.9,2.4c9.5,2.9,15.4,9.5,16.9,19.4c1.6,10.6-0.6,20.1-9.5,27.1c-5.7,4.5-12.4,6.5-19.4,7.1
		c-4.6,0.4-9.4,0.1-14.3,0.1v33.1h-16L355.4,62z M371.3,88.4c0,4.4,0,8.8,0,13.2c0,1.4,0.3,2.2,1.8,2.2c4.1-0.1,8.4,0.3,12.4-0.3
		c8-1.2,12.5-6.5,13.2-14.5c0.7-7.2-2.9-12.8-9.7-15.1c-5.2-1.8-10.6-1.4-16-0.8c-1.5,0.2-1.8,0.8-1.8,2.2
		C371.4,79.6,371.3,84,371.3,88.4z"/>
	
		<linearGradient id="SVGID_00000052797339121989273740000014002330398799355311_" gradientUnits="userSpaceOnUse" x1="440.5605" y1="-2.0956" x2="439.61" y2="205.5876">
		<stop  offset="0" style="stop-color:#EF7167"/>
		<stop  offset="0.2622" style="stop-color:#EA6F66"/>
		<stop  offset="0.5732" style="stop-color:#DC6A63"/>
		<stop  offset="0.7368" style="stop-color:#D16661"/>
	</linearGradient>
	<path style="fill:url(#SVGID_00000052797339121989273740000014002330398799355311_);" d="M459.8,88l-2.9,10.7
		c-4.1-1-7.9-2.2-11.8-2.8c-2.2-0.2-4.4,0-6.5,0.6c-2.5,0.5-4.3,2.7-4.4,5.2c-0.4,2.5,0.9,5,3.2,6.1c3.5,1.8,7.2,3.2,10.8,4.7
		c5.1,2.2,9.8,5,12.4,10.2c4.7,9.2,1.1,20.4-8.1,25.1c-0.6,0.3-1.3,0.6-2,0.9c-10.8,4.1-21.6,3.3-32.1-1.3c-0.6-0.2-1.3-1.2-1.2-1.7
		c0.8-3.5,1.8-7,2.8-10.7c4.6,2.6,9.8,4.1,15.1,4.4c2.2,0.1,4.4-0.1,6.5-0.6c2.6-0.6,4.7-2.3,5.1-5.2c0.5-3.3-0.6-6-3.6-7.5
		c-3.4-1.7-6.9-3-10.4-4.5c-4.4-1.9-8.4-4.3-11.2-8.2c-5.7-8-2.9-19.8,6.1-25.3C436.1,82.7,451,82.7,459.8,88z"/>
</g>
<g>
	<defs>
		<path id="SVGID_00000093895177737570210640000005581273992185832867_" d="M0,23.6c0.8,1.8,2.4,5,5.8,7.8c1.3,1.1,4.8,3.9,10.2,4.5
			c4.8,0.5,8.6-1.1,10-1.7c3.9-1.7,3.9-3.2,6.7-3.6c3.9-0.6,5.5,2.3,9.3,2.4c3.6,0,6.2-2.5,9.3-5.5c10.7-10.2,16.1-15.3,21.6-17.3
			c7.1-2.6,13.6-1.5,16.6-1c4.1,0.7,7.5,1.3,9.7,4c2.2,2.7,1.5,5.1,4.3,6.9c1.1,0.7,2.9,1.1,6.4,1.9c3.7,0.8,3.6,0.5,4.8,1
			c3.5,1.4,3.6,4.4,6.7,7.4c3.3,3.2,7.6,3.9,10.5,4.3c5.4,0.8,6.1-1,12.6-0.7c6.2,0.3,6.8,2.1,11.6,2.1c2.5,0,5.4-0.4,14-4.8
			c13.4-6.7,12.8-8.9,19-10.5c9.6-2.4,18,0.8,19,1.2c7.9,3.1,8.7,7.6,15.2,9.3c6.4,1.7,12.6-0.8,17.1-3.3l13.8,3.6l-1,212.7H-3
			L-6.8,24.8L0,23.6z"/>
	</defs>
	<clipPath id="SVGID_00000181792404747618627580000004469307880901922213_">
		<use xlink:href="#SVGID_00000093895177737570210640000005581273992185832867_"  style="overflow:visible;"/>
	</clipPath>
	<path style="clip-path:url(#SVGID_00000181792404747618627580000004469307880901922213_);fill:#FFFFFF;" d="M12.6,225.1V15.2h215.1
		v209.9H12.6z M22.6,216.1h195.7V24.8H22.6L22.6,216.1z"/>
	<path style="clip-path:url(#SVGID_00000181792404747618627580000004469307880901922213_);fill:#FFFAFA;" d="M144.7,163.2
		c-5.7,0-11.1,0-16.4-0.1c-0.6-0.2-1.1-0.6-1.3-1.2c-1.9-5.9-3.8-11.8-5.7-17.6c-0.7-2-0.8-4.7-2.2-5.8s-4-0.5-6.1-0.6
		c-6.7,0-13.5,0-20.2,0c-1.1-0.2-2.1,0.5-2.3,1.6c0,0.1,0,0.1,0,0.2c-2.1,7.1-4.3,14.3-6.4,21.4c-0.4,1.5-1.1,2.1-2.7,2.1
		c-4.8-0.1-9.6,0-14.6,0c0.6-2,1.1-3.7,1.7-5.5c4.4-13.7,8.8-27.5,13.2-41.2c4.3-13.5,8.7-27,13-40.5c0.1-1.1,1.2-1.9,2.3-1.8
		c0,0,0,0,0.1,0c6.2,0.1,12.5,0,18.9,0L144.7,163.2z M116.4,125.8c-3.9-12.9-7.8-25.5-11.4-37.7l-11,37.7H116.4z"/>
	<path style="clip-path:url(#SVGID_00000181792404747618627580000004469307880901922213_);fill:#FFFAFA;" d="M151.2,99.1h16.1v64.1
		h-16.1V99.1z"/>
	<path style="clip-path:url(#SVGID_00000181792404747618627580000004469307880901922213_);fill:#FFFAFA;" d="M159.2,89.7
		c-5.2,0-9-3.5-9.1-8.6c-0.1-4.9,3.7-8.9,8.6-9c0.1,0,0.3,0,0.4,0c4.8-0.2,8.9,3.4,9.1,8.2c0,0.3,0,0.5,0,0.8
		C168.3,86.2,164.6,89.7,159.2,89.7z"/>
</g>
</svg>
