<?xml version="1.0" encoding="utf-8"?>
<!-- Generator: Adobe Illustrator 26.3.1, SVG Export Plug-In . SVG Version: 6.00 Build 0)  -->
<svg version="1.1" id="Capa_1" xmlns="http://www.w3.org/2000/svg" xmlns:xlink="http://www.w3.org/1999/xlink" x="0px" y="0px"
	 viewBox="0 0 51 21" style="enable-background:new 0 0 51 21;" xml:space="preserve">
<style type="text/css">
	.st0{fill:#EF7167;}
	.st1{fill:#FFFFFF;}
</style>
<rect x="15" y="-15" transform="matrix(6.123234e-17 -1 1 6.123234e-17 15 36)" class="st0" width="21" height="51"/>
<g>
	<g>
		<path class="st1" d="M22.5,14.5h-1.6V7h1.6V14.5z"/>
		<path class="st1" d="M29.4,14.5h-1.6v-3.1c0-0.4-0.1-0.8-0.2-1c-0.2-0.2-0.4-0.3-0.7-0.3c-0.3,0-0.6,0.1-0.8,0.4s-0.3,0.5-0.3,0.9
			v3.1h-1.6V9h1.6v0.9h0c0.2-0.3,0.5-0.6,0.7-0.8c0.3-0.2,0.6-0.3,1-0.3c0.6,0,1.1,0.2,1.4,0.6s0.5,0.9,0.5,1.7V14.5z"/>
		<path class="st1" d="M34.1,7.7c-0.1,0-0.2-0.1-0.3-0.1c-0.1,0-0.2,0-0.3,0c-0.2,0-0.4,0.1-0.5,0.2s-0.2,0.3-0.2,0.6V9h1.3v1.2
			h-1.3v4.3h-1.6v-4.3h-0.9V9h0.9V8.3c0-0.6,0.2-1.1,0.6-1.4c0.4-0.4,0.9-0.5,1.5-0.5c0.2,0,0.4,0,0.6,0s0.3,0.1,0.5,0.1L34.1,7.7z"
			/>
		<path class="st1" d="M37.6,14.6c-0.9,0-1.6-0.3-2.1-0.8s-0.8-1.2-0.8-2.1c0-0.9,0.3-1.6,0.8-2.1s1.3-0.8,2.2-0.8
			c0.9,0,1.6,0.3,2.1,0.8s0.8,1.2,0.8,2c0,0.9-0.3,1.6-0.8,2.1C39.3,14.4,38.5,14.6,37.6,14.6z M37.7,13.4c0.4,0,0.7-0.1,1-0.4
			s0.3-0.7,0.3-1.3c0-0.5-0.1-0.9-0.3-1.2c-0.2-0.3-0.5-0.4-1-0.4c-0.4,0-0.7,0.1-1,0.4c-0.2,0.3-0.4,0.7-0.4,1.2
			c0,0.5,0.1,1,0.3,1.2C36.9,13.2,37.2,13.4,37.7,13.4z"/>
	</g>
	<g>
		<rect x="13.1" y="7.3" class="st1" width="1.5" height="6.9"/>
		
			<rect x="13.1" y="7.3" transform="matrix(-1.836970e-16 1 -1 -1.836970e-16 24.5902 -3.12)" class="st1" width="1.5" height="6.9"/>
	</g>
</g>
</svg>
