<svg id="Capa_1" data-name="Capa 1" xmlns="http://www.w3.org/2000/svg" viewBox="0 0 58.15 58.15"><defs><style>.cls-1{fill:#0080a6;}.cls-2{fill:#fff;}</style></defs><path class="cls-1" d="M58.15,29.07A29.08,29.08,0,1,1,29.07,0,29.08,29.08,0,0,1,58.15,29.07Z"/><path class="cls-2" d="M37,48.7H21.2A12.7,12.7,0,0,1,8.52,36V22.13A12.7,12.7,0,0,1,21.2,9.45H37A12.7,12.7,0,0,1,49.63,22.13V36A12.7,12.7,0,0,1,37,48.7ZM21.2,12.27a9.87,9.87,0,0,0-9.86,9.86V36a9.87,9.87,0,0,0,9.86,9.86H37A9.87,9.87,0,0,0,46.81,36V22.13A9.87,9.87,0,0,0,37,12.27Z"/><path class="cls-2" d="M29.07,40.36A11.29,11.29,0,1,1,40.36,29.07,11.29,11.29,0,0,1,29.07,40.36Zm0-19.76a8.47,8.47,0,1,0,8.47,8.47A8.48,8.48,0,0,0,29.07,20.6Z"/><path class="cls-2" d="M42.53,18.13a2.34,2.34,0,1,1-2.34-2.34A2.35,2.35,0,0,1,42.53,18.13Z"/></svg>