<?xml version="1.0" encoding="utf-8"?>
<!-- Generator: Adobe Illustrator 26.3.1, SVG Export Plug-In . SVG Version: 6.00 Build 0)  -->
<svg version="1.1" id="Capa_1" xmlns="http://www.w3.org/2000/svg" xmlns:xlink="http://www.w3.org/1999/xlink" x="0px" y="0px"
	 viewBox="0 0 861.1 149.9" style="enable-background:new 0 0 861.1 149.9;" xml:space="preserve">
<style type="text/css">
	.st0{fill:#00AEB8;}
	.st1{fill:#FFFFFF;}
</style>
<path class="st0" d="M922.2-1563c-44.6,4.8-79.9,4.4-103.9,3.2c-26.5-1.3-36.3-3.5-62-3.2c-43.2,0.6-49.3,7.2-82.1,8.6
	c-55.4,2.3-61.2-15.7-122.4-16c-16-0.1-13.6,1.2-85.5,9.6c-18,2.1-69.2,8.2-110.6,11.8c-25.4,2.2-77.3,6.6-137.5,6.4
	c-77.6-0.3-150.2-8.2-212.9-15c-54-5.9-69.7-9.1-100.6-6.4c-45.2,3.9-61.3,15.1-103.9,15c-35.1-0.1-45.3-7.7-82.1-13.9
	c-67.8-11.4-97.5,3.6-179.4,5.3c-83.8,1.8-78.3-13.4-164.3-15c-120.4-2.3-133.4,27.4-248.1,25.7c-82.5-1.2-93.4-16.8-191.1-23.5
	c-90.2-6.2-165.7,1.2-215.8,8.6l-37.4,144.4l-8.4,94.8l749.4,5.7c0,0,1259-33.1,1300.9-33.1c41.9,0,201.2,10.7,207.9-1.1
	C939-1363,922.2-1563,922.2-1563z"/>
<path class="st1" d="M-202.1-681.5c0,0,48,35.8,128,35.8c28.2,0,52.7-1.2,91-5.4c63.1-7,63.9-13.2,102-14.6c59.2-2.1,56,13,108,9
	c55.8-4.3,75-22.8,104.5-7.8c18.6,9.4,27.2,20.6,45.5,18.8c16.4-1.6,18.1-12.3,43-22c22.6-8.8,42.5-8.3,51-8c6.8,0.2,15.7,1.1,44,9
	c41,11.5,48,16.9,70,22c22.2,5.2,38.5,5.1,65,5c0,0,61.3-0.4,118-17.8c10.3-3.2,17.3-5.7,22.9-7.9c14.1-5.7,15.5-7.2,20.7-8.8
	c17.8-5.3,25.8,7.8,50.4,11.5c24.6,3.8,25.9-7.8,53.6-4.9c26.5,2.8,29.4,13.9,44.4,9.9c19.9-5.4,30.6-29,40.7-24.8
	c3.6,1.5,5.1,5.8,10.8,6.5c5.1,0.6,6.8-2.4,10.3-1.8c7.3,1.4,6.5,16.1,13.5,23.8c8.1,8.7,22.8,4.1,41.6,2.3
	c37.8-3.7,54.2,19,119.4,6.8c8-1.5,12.8-2.8,13.6-2.8c3,0,6-89,6-89l11-28l-1454-5L-202.1-681.5z"/>
<path class="st1" d="M496.9,12.5c-2.9,0.6-13.7,2.7-26.6,2.2c-14.9-0.6-16.8-3.9-38.4-6.7c-6.5-0.9-14-1.5-23.4-1.8
	c-55.9-1.8-61,12.8-114.4,12.2c-52.7-0.6-49.8-14.8-103.5-17.6C160.8-0.9,99.5-3.2,46.1,37.3C33.7,46.7-4.3,75.6,0.4,102.4
	c5.9,33.3,74.4,42.7,89.1,44.7c68,9.4,85.5-18.9,163.7-17.6c53.7,0.9,45.1,14.2,107.1,16.3c65,2.2,79-12.2,146.9-8.1
	c51.2,3.1,44.8,11.4,90.3,12.2c67.3,1.2,75.2-17,132.4-10.8c40.2,4.3,52.3,15.1,78.2,5.4c22.1-8.2,52.5-30.4,53-59.7
	c0.6-37.3-47.8-61.3-55.4-65.1c0,0-6.3-3-12.7-5.1c-9.3-3-22.8,0.1-38.1,0.8c-7.4,0.3-13.9-0.3-27.1-1.4c-9.1-0.8-21.6-1.9-37.3-5
	c-8.2-1.6-11.3-2.6-19-3.5c-7.6-0.9-13.6-1.6-21.4-0.7c-9.4,1.1-11,3.2-19.2,3.2c-5.9,0-8-1.1-14.5-2.3c-11.2-1.9-19.9-1.2-30.4-0.2
	c-16.9,1.5-18.3,4.3-27.6,2.6c-7.3-1.3-8.8-3.4-16.6-4c-3.6-0.3-7.8-0.2-19.2,2.1C508.6,8.9,505.8,10.7,496.9,12.5z"/>
<path class="st0" d="M2689.3-103.8c59.8-110.5,46.1-365.9-3-399.8c-44.2-30.5-135.1-10-189,21c-20.4,11.7-31.9,22.8-61,33.1
	c-42.2,14.9-80.1,13.3-106.7,12c-37.2-1.8-36.5-6.9-94.5-15c-67.5-9.4-72.4-3.1-118.9-12c-64.6-12.4-60.2-25.7-103.7-30.1
	c-62.7-6.3-77.6,20.7-140.2,21c-64.9,0.4-61.5-28.4-137.2-39.1c-93.6-13.1-193.5,17.6-213.4,24c-21.8,7-49.9,17.9-88.4,15
	c-21.2-1.6-30.5-6.1-70.1-15c-25.7-5.8-54.8-12.3-82.3-15c-60.3-6-76.2,10.1-155.5,12c-32.3,0.8-29.3-1.9-76.2-3
	c-139.2-3.2-161.5,20.5-250,6c-35.9-5.9-46.1-12-94.5-18c-40-5-71.5-5.5-103.7-6c-58-0.9-73.9,2.7-134.1,0
	c-36.3-1.6-30.2-2.9-48.8-3c-67.7-0.4-93.9,16.8-146.3,21c-49.8,4.1-48-9.6-109.8-12c-76.7-3-96.7,17.6-201.2,33.1
	c-100.4,14.9-89.1-3-161.6,12C-311.6-438.6-323-400-399.1-404.4c-54.7-3.2-58-23.7-131.1-27.1c-55.9-2.6-61,9.1-115.9,3
	c-56.7-6.3-62.6-20-109.8-18c-38.9,1.6-49.6,11.6-76.2,3c-29-9.4-36.1-27.5-61-27.1c-21.1,0.4-22.9,13.7-45.7,18
	c-29.2,5.5-39.9-13.6-88.4-27.1c-22.7-6.3-53.2-14.7-85.4-6c-35,9.5-36.2,29.7-67.1,45.1c-68.5,34.2-160.3-16.2-161.6-12
	c-0.5,1.7,16.2,9.2,36.6,15c38.4,10.9,81.5,13.5,82.3,9c1.3-6.7-88.5-48.7-186-36.1c-36.5,4.7-48.2,13.7-85.4,12
	c-51.8-2.4-73.8-21.9-109.8-30.1c-35.1-7.9-88.4-6-164.6,42.1l12.2,270.6c0,0,210.4,321.7,201.2,165.3
	C-1555.3-16.6,2689.3-103.8,2689.3-103.8z"/>
</svg>
