<?xml version="1.0" encoding="utf-8"?>
<!-- Generator: Adobe Illustrator 26.3.1, SVG Export Plug-In . SVG Version: 6.00 Build 0)  -->
<svg version="1.1" id="Capa_1" xmlns="http://www.w3.org/2000/svg" xmlns:xlink="http://www.w3.org/1999/xlink" x="0px" y="0px"
	 viewBox="0 0 1366 110.4" style="enable-background:new 0 0 1366 110.4;" xml:space="preserve">
<style type="text/css">
	.st0{fill:#FFFFFF;}
</style>
<path class="st0" d="M-18,55.2c0,0,48,35.8,128,35.8s96-5,143-19s98-21,147-8s103,26,161,27s61-20,115-10s38,21,158,16
	c55.7-2.3,91.7-9.7,118-17.8c37-11.4,32.1-14.9,67-24c7.2-1.9,57.3-14.6,113-10.2c28.8,2.3,47,8.1,60.5,14.3
	c4.9,2.2,4.7,2.4,11.2,5.6c8,3.8,22.1,9.6,57.3,20.2c73,22,130,4,133,4s6-89,6-89l11-28L-43-33L-18,55.2z"/>
</svg>
