<?xml version="1.0" encoding="utf-8"?>
<!-- Generator: Adobe Illustrator 26.3.1, SVG Export Plug-In . SVG Version: 6.00 Build 0)  -->
<svg version="1.1" id="Capa_1" xmlns="http://www.w3.org/2000/svg" xmlns:xlink="http://www.w3.org/1999/xlink" x="0px" y="0px"
	 viewBox="0 0 861.1 149.9" style="enable-background:new 0 0 861.1 149.9;" xml:space="preserve">
<style type="text/css">
	.st0{fill:#00AEB8;}
	.st1{fill:#FFFFFF;}
</style>
<path class="st1" d="M502.4,17c-48.4-1-51.9-9.5-93.9-10.8c-55.9-1.8-61,12.8-114.4,12.2c-52.7-0.6-49.8-14.8-103.5-17.6
	C160.8-0.9,99.5-3.2,46.1,37.3C33.7,46.7-4.3,75.6,0.4,102.4c5.9,33.3,74.4,42.7,89.1,44.7c68,9.4,85.5-18.9,163.7-17.6
	c53.7,0.9,45.1,14.2,107.1,16.3c65,2.2,79-12.2,146.9-8.1c51.2,3.1,44.8,11.4,90.3,12.2c67.3,1.2,75.2-17,132.4-10.8
	c40.2,4.3,52.3,15.1,78.2,5.4c22.1-8.2,52.5-30.4,53-59.7c0.6-37.3-47.8-61.3-55.4-65.1c-21.8-10.8-33.6-8.4-108.3-8.1
	c-74.2,0.3-72.4-2-112,0C536.3,14.1,534.2,17.6,502.4,17z"/>
<path class="st0" d="M2689.3-103.8c59.8-110.5,46.1-365.9-3-399.8c-44.2-30.5-135.1-10-189,21c-20.4,11.7-31.9,22.8-61,33.1
	c-42.2,14.9-80.1,13.3-106.7,12c-37.2-1.8-36.5-6.9-94.5-15c-67.5-9.4-72.4-3.1-118.9-12c-64.6-12.4-60.2-25.7-103.7-30.1
	c-62.7-6.3-77.6,20.7-140.2,21c-64.9,0.4-61.5-28.4-137.2-39.1c-93.6-13.1-193.5,17.6-213.4,24c-21.8,7-49.9,17.9-88.4,15
	c-21.2-1.6-30.5-6.1-70.1-15c-25.7-5.8-54.8-12.3-82.3-15c-60.3-6-76.2,10.1-155.5,12c-32.3,0.8-29.3-1.9-76.2-3
	c-139.2-3.2-161.5,20.5-250,6c-35.9-5.9-46.1-12-94.5-18c-40-5-71.5-5.5-103.7-6c-58-0.9-73.9,2.7-134.1,0
	c-36.3-1.6-30.2-2.9-48.8-3c-67.7-0.4-93.9,16.8-146.3,21c-49.8,4.1-48-9.6-109.8-12c-76.7-3-96.7,17.6-201.2,33.1
	c-100.4,14.9-89.1-3-161.6,12C-311.6-438.6-323-400-399.1-404.4c-54.7-3.2-58-23.7-131.1-27.1c-55.9-2.6-61,9.1-115.9,3
	c-56.7-6.3-62.6-20-109.8-18c-38.9,1.6-49.6,11.6-76.2,3c-29-9.4-36.1-27.5-61-27.1c-21.1,0.4-22.9,13.7-45.7,18
	c-29.2,5.5-39.9-13.6-88.4-27.1c-22.7-6.3-53.2-14.7-85.4-6c-35,9.5-36.2,29.7-67.1,45.1c-68.5,34.2-160.3-16.2-161.6-12
	c-0.5,1.7,16.2,9.2,36.6,15c38.4,10.9,81.5,13.5,82.3,9c1.3-6.7-88.5-48.7-186-36.1c-36.5,4.7-48.2,13.7-85.4,12
	c-51.8-2.4-73.8-21.9-109.8-30.1c-35.1-7.9-88.4-6-164.6,42.1l12.2,270.6c0,0,210.4,321.7,201.2,165.3
	C-1555.3-16.6,2689.3-103.8,2689.3-103.8z"/>
</svg>
