<svg id="Capa_1" data-name="Capa 1" xmlns="http://www.w3.org/2000/svg" viewBox="0 0 1366 110.4"><defs><style>.cls-1{fill:#00aeb8;}</style></defs><path class="cls-1" d="M.17,92.44a269,269,0,0,0,44,12,272.89,272.89,0,0,0,57,4.27c48.73-1,73.09-1.5,132.59-4.27,55.08-2.57,96.79-1.31,139.72,0,95.88,2.9,83.54,7,126.9,5.7,54.32-1.63,57.78-8.27,150.41-18.54C718,84.16,751.56,80.44,795.17,82c70.19,2.5,70.6,14.23,141.15,17.11,77.56,3.17,74.91-11.1,150.76-6.42,71.68,4.42,81.24,17.6,125.11,8.56,24.2-5,53-15.52,85.55-15,4.44.07,21,.56,43.84-.36,10.34-.42,18.82-1,24.42-1.42V0H0Z"/></svg>