<svg id="Capa_1" data-name="Capa 1" xmlns="http://www.w3.org/2000/svg" viewBox="0 0 58.47 58.45"><defs><style>.cls-1{fill:#0080a6;}.cls-2{fill:#fff;}</style></defs><path class="cls-1" d="M29.24,58.45A29.23,29.23,0,1,1,58.47,29.76,29.18,29.18,0,0,1,29.24,58.45ZM45.4,43.31c0-.14,0-.23,0-.32,0-4.51,0-9,0-13.54a7.85,7.85,0,0,0-1.51-4.71c-2.67-3.62-8.68-3.64-11.66-.06l-.45.56-.16-.07V22.7H25.59V43.31h6.09v-.8c0-3.41,0-6.81,0-10.21a7.22,7.22,0,0,1,.51-2.47,3.45,3.45,0,0,1,3.78-2,3.06,3.06,0,0,1,2.89,2.66,9.26,9.26,0,0,1,.21,2c0,3.33,0,6.66,0,10v.86Zm-24,0V22.7h-6.3V43.31ZM22,16.1a3.86,3.86,0,0,0-3.79-3.81,3.82,3.82,0,0,0,0,7.63A3.88,3.88,0,0,0,22,16.1Z"/><path class="cls-2" d="M45.4,43.31H39.1v-.86c0-3.34,0-6.67,0-10a9.26,9.26,0,0,0-.21-2A3.06,3.06,0,0,0,36,27.83a3.45,3.45,0,0,0-3.78,2,7.22,7.22,0,0,0-.51,2.47c-.05,3.4,0,6.8,0,10.21v.8H25.59V22.7h6.05v2.47l.16.07.45-.56c3-3.58,9-3.56,11.66.06a7.85,7.85,0,0,1,1.51,4.71c0,4.51,0,9,0,13.54C45.43,43.08,45.41,43.17,45.4,43.31Z"/><path class="cls-2" d="M21.37,43.31h-6.3V22.7h6.3Z"/><path class="cls-2" d="M22,16.1a3.88,3.88,0,0,1-3.79,3.82A3.82,3.82,0,1,1,22,16.1Z"/></svg>