<?xml version="1.0" encoding="utf-8"?>
<!-- Generator: Adobe Illustrator 26.3.1, SVG Export Plug-In . SVG Version: 6.00 Build 0)  -->
<svg version="1.1" id="Capa_1" xmlns="http://www.w3.org/2000/svg" xmlns:xlink="http://www.w3.org/1999/xlink" x="0px" y="0px"
	 viewBox="0 0 240.4 240.4" style="enable-background:new 0 0 240.4 240.4;" xml:space="preserve">
<style type="text/css">
	.st0{fill:url(#SVGID_1_);}
	.st1{fill:#EF7167;}
	.st2{fill:#D65751;}
	.st3{fill:url(#SVGID_00000141413737195311083720000017915446245956970672_);}
	.st4{fill:url(#SVGID_00000069384477110774814650000002765133435185057445_);}
	.st5{fill:url(#SVGID_00000095304823998543102280000016686149642611130240_);}
	.st6{clip-path:url(#SVGID_00000036938082410098721500000003172591459979712656_);}
	.st7{fill:#FFFFFF;}
	.st8{fill:url(#SVGID_00000034808705118379145530000014523415340376145546_);}
</style>
<linearGradient id="SVGID_1_" gradientUnits="userSpaceOnUse" x1="117.2764" y1="87.816" x2="116.3259" y2="218.9844">
	<stop  offset="0" style="stop-color:#D65751"/>
	<stop  offset="0.7368" style="stop-color:#A84C43"/>
</linearGradient>
<path class="st0" d="M-3.7,112.5c0.8-0.4,2.1-1,3.7-1.7c20.2-9.2,22.4-10.7,26.5-11.6c9-2.1,10.4,2.2,22.6,2.9
	c17.3,0.9,18.7-7.8,44-12.1c20.4-3.5,30.9,0.2,34.6,1.7c5.1,2.1,4.6,2.9,11.1,5.9c5,2.3,18,8.4,32.8,6.8c13.5-1.4,16.6-8.3,25.6-5.6
	c6.8,2,5.6,6,13.4,8.7c9.3,3.2,14.6-1.1,22.6,3.2c3.6,2,5.7,4.6,7.2,6.7c11.2,14.5,4.7,40,3.8,43.5c0,0,11.9,105,10.9,105
	c-1,0-278.3-2.4-278.3-2.4L-3.7,112.5z"/>
<rect x="333.6" y="0.3" class="st1" width="240.4" height="240.4"/>
<g>
	<path class="st2" d="M-323.4,88.5l3.9,32.7l193.2,12.5l43.4-24l-0.6-15.6l0,0c-5.4-7.8-13.5-13.2-22.8-14.9
		c-9.8-1.8-20.6-1.5-27.8,1.5c-5.5,2.3-10.9,5.9-16.8,6c-3.9,0-7.7-1.5-11.5-2.3s-8.2-0.5-11.1,2.5c-1.8,1.9-2.9,4.6-4.6,6.5
		c-2.4,2.6-6.1,3.5-9.1,2.2c-3.1-1.3-5.4-4.8-5.9-8.6c-0.3-2.6,0.2-5.3-0.2-7.9c-0.7-4.2-3.8-7.5-7.2-8.8c-3.4-1.4-7.1-1.2-10.7-0.7
		c-4.9,0.6-10.1,1.9-13.8,5.8c-3.1,3.3-4.8,8-7.5,11.8c-5.2,7.6-14.2,11.1-22.1,8.8c-7.1-2.1-12.8-8.2-19.3-12.2
		c-13.7-8.4-30.5-6.9-45.4,2.5L-323.4,88.5z"/>
</g>
<g>
	
		<linearGradient id="SVGID_00000029754606149492208040000006816436085129111977_" gradientUnits="userSpaceOnUse" x1="120.6746" y1="11.0196" x2="119.7241" y2="218.7027">
		<stop  offset="0" style="stop-color:#EF7167"/>
		<stop  offset="0.2622" style="stop-color:#EA6F66"/>
		<stop  offset="0.5732" style="stop-color:#DC6A63"/>
		<stop  offset="0.7368" style="stop-color:#D16661"/>
	</linearGradient>
	<path style="fill:url(#SVGID_00000029754606149492208040000006816436085129111977_);" d="M12.6,225.1V15.2h215.1v209.9H12.6z
		 M22.9,215.8H218V25.1H22.9L22.9,215.8z"/>
	
		<linearGradient id="SVGID_00000155857711977748631810000009675829693145196687_" gradientUnits="userSpaceOnUse" x1="99.4945" y1="10.9226" x2="98.544" y2="218.6058">
		<stop  offset="0" style="stop-color:#EF7167"/>
		<stop  offset="0.2622" style="stop-color:#EA6F66"/>
		<stop  offset="0.5732" style="stop-color:#DC6A63"/>
		<stop  offset="0.7368" style="stop-color:#D16661"/>
	</linearGradient>
	<path style="fill:url(#SVGID_00000155857711977748631810000009675829693145196687_);" d="M69.3,75.3c9-1.6,18.1-2.2,27.2-1.7
		c5.1,0.2,10.1,1,14.9,2.4c9.5,2.9,15.4,9.4,16.9,19.4c1.6,10.6-0.6,20.1-9.5,27.1c-5.7,4.5-12.3,6.5-19.4,7.1
		c-4.7,0.4-9.4,0.1-14.3,0.1v33.1h-16L69.3,75.3z M85.3,101.7c0,4.4,0,8.8,0,13.2c0,1.4,0.3,2.2,1.8,2.2c4.2-0.1,8.4,0.3,12.4-0.3
		c8-1.2,12.5-6.5,13.2-14.5c0.7-7.2-2.9-12.8-9.7-15.1c-5.2-1.8-10.6-1.4-16-0.8c-1.5,0.2-1.8,0.8-1.8,2.2
		C85.3,92.9,85.3,97.3,85.3,101.7z"/>
	
		<linearGradient id="SVGID_00000108301512234717018600000005039486593087415962_" gradientUnits="userSpaceOnUse" x1="154.5077" y1="11.1744" x2="153.5572" y2="218.8576">
		<stop  offset="0" style="stop-color:#EF7167"/>
		<stop  offset="0.2622" style="stop-color:#EA6F66"/>
		<stop  offset="0.5732" style="stop-color:#DC6A63"/>
		<stop  offset="0.7368" style="stop-color:#D16661"/>
	</linearGradient>
	<path style="fill:url(#SVGID_00000108301512234717018600000005039486593087415962_);" d="M173.8,101.3l-2.9,10.7
		c-4.1-1-7.9-2.2-11.8-2.8c-2.2-0.2-4.4,0-6.5,0.6c-2.5,0.5-4.3,2.7-4.4,5.2c-0.4,2.5,0.9,5,3.2,6.1c3.5,1.8,7.2,3.2,10.8,4.7
		c5.1,2.2,9.8,5,12.4,10.2c4.7,9.2,1.1,20.4-8.1,25.1c-0.6,0.3-1.3,0.6-2,0.9c-10.8,4.1-21.6,3.3-32.1-1.3c-0.6-0.2-1.3-1.2-1.2-1.7
		c0.8-3.5,1.8-7,2.8-10.7c4.6,2.6,9.8,4.1,15.1,4.4c2.2,0.1,4.4-0.1,6.5-0.6c2.6-0.6,4.7-2.3,5.1-5.2c0.5-3.3-0.6-6-3.6-7.5
		c-3.4-1.7-6.9-3-10.4-4.5c-4.4-1.9-8.4-4.3-11.2-8.2c-5.7-8-2.9-19.8,6.1-25.3C150.1,96,164.9,96,173.8,101.3z"/>
</g>
<path class="st1" d="M250.6,241.5c-2.1-103.4-6.1-133.3-10.2-133.4c-1.6-0.1-3,4.2-11,10.3c-4.2,3.2-7.1,5.4-11.3,6.4
	c-8.3,2-15.8-2.1-18-3.3c-8.2-4.5-7.5-8.8-15.7-13.3c-6.7-3.7-13.2-4-15.4-4c-11.6-0.3-20.5,5.4-24.2,7.8
	c-9.9,6.5-11.2,12.3-17.1,12.1c-5.8-0.1-6.3-5.7-13.1-6.7c-8.3-1.2-11,6.5-19.7,5.7c-6.2-0.6-10.9-5.8-14.3-9.3
	c-5.3-5.6-4.4-8.2-8.8-10.5c-1.9-1-2-0.5-14.3-2.1c-5.5-0.7-6.7-1-9-0.5c-3.9,0.8-6.3,3-9,5.2c-9.5,7.9-16.2,13.4-23.5,13.1
	c-3.8-0.2-7.2-1.8-8.3-2.4c-3.8-1.9-6.2-4.4-7.5-5.9l-6,18.3l-1.4,120.5L250.6,241.5z"/>
<g>
	<defs>
		<path id="SVGID_00000083079860507439658860000001837882151066500761_" d="M250.6,241.5c-2.1-103.4-6.1-133.3-10.2-133.4
			c-1.6-0.1-3,4.2-11,10.3c-4.2,3.2-7.1,5.4-11.3,6.4c-8.3,2-15.8-2.1-18-3.3c-8.2-4.5-7.5-8.8-15.7-13.3c-6.7-3.7-13.2-4-15.4-4
			c-11.6-0.3-20.5,5.4-24.2,7.8c-9.9,6.5-11.2,12.3-17.1,12.1c-5.8-0.1-6.3-5.7-13.1-6.7c-8.3-1.2-11,6.5-19.7,5.7
			c-6.2-0.6-10.9-5.8-14.3-9.3c-5.3-5.6-4.4-8.2-8.8-10.5c-1.9-1-2-0.5-14.3-2.1c-5.5-0.7-6.7-1-9-0.5c-3.9,0.8-6.3,3-9,5.2
			c-9.5,7.9-16.2,13.4-23.5,13.1c-3.8-0.2-7.2-1.8-8.3-2.4c-3.8-1.9-6.2-4.4-7.5-5.9l-6,18.3l-1.4,120.5L250.6,241.5z"/>
	</defs>
	<clipPath id="SVGID_00000122687911533670335680000016816472398185992584_">
		<use xlink:href="#SVGID_00000083079860507439658860000001837882151066500761_"  style="overflow:visible;"/>
	</clipPath>
	<g style="clip-path:url(#SVGID_00000122687911533670335680000016816472398185992584_);">
		<path class="st7" d="M12.6,225.1V15.2h215.1v209.9H12.6z M22.9,215.8H218V25.1H22.9L22.9,215.8z"/>
		<path class="st7" d="M69.3,75.3c9-1.6,18.1-2.2,27.2-1.7c5.1,0.2,10.1,1,14.9,2.4c9.5,2.9,15.4,9.4,16.9,19.4
			c1.6,10.6-0.6,20.1-9.5,27.1c-5.7,4.5-12.3,6.5-19.4,7.1c-4.7,0.4-9.4,0.1-14.3,0.1v33.1h-16L69.3,75.3z M85.3,101.7
			c0,4.4,0,8.8,0,13.2c0,1.4,0.3,2.2,1.8,2.2c4.2-0.1,8.4,0.3,12.4-0.3c8-1.2,12.5-6.5,13.2-14.5c0.7-7.2-2.9-12.8-9.7-15.1
			c-5.2-1.8-10.6-1.4-16-0.8c-1.5,0.2-1.8,0.8-1.8,2.2C85.3,92.9,85.3,97.3,85.3,101.7z"/>
		<path class="st7" d="M173.8,101.3l-2.9,10.7c-4.1-1-7.9-2.2-11.8-2.8c-2.2-0.2-4.4,0-6.5,0.6c-2.5,0.5-4.3,2.7-4.4,5.2
			c-0.4,2.5,0.9,5,3.2,6.1c3.5,1.8,7.2,3.2,10.8,4.7c5.1,2.2,9.8,5,12.4,10.2c4.7,9.2,1.1,20.4-8.1,25.1c-0.6,0.3-1.3,0.6-2,0.9
			c-10.8,4.1-21.6,3.3-32.1-1.3c-0.6-0.2-1.3-1.2-1.2-1.7c0.8-3.5,1.8-7,2.8-10.7c4.6,2.6,9.8,4.1,15.1,4.4c2.2,0.1,4.4-0.1,6.5-0.6
			c2.6-0.6,4.7-2.3,5.1-5.2c0.5-3.3-0.6-6-3.6-7.5c-3.4-1.7-6.9-3-10.4-4.5c-4.4-1.9-8.4-4.3-11.2-8.2c-5.7-8-2.9-19.8,6.1-25.3
			C150.1,96,164.9,96,173.8,101.3z"/>
	</g>
</g>
<g>
	
		<linearGradient id="SVGID_00000094602504756772381580000007481392281439062715_" gradientUnits="userSpaceOnUse" x1="390.7868" y1="67.8602" x2="391.4996" y2="356.2166">
		<stop  offset="0" style="stop-color:#EF7167"/>
		<stop  offset="0.2622" style="stop-color:#EA6F66"/>
		<stop  offset="0.5732" style="stop-color:#DC6A63"/>
		<stop  offset="0.7368" style="stop-color:#D16661"/>
	</linearGradient>
	<path style="fill:url(#SVGID_00000094602504756772381580000007481392281439062715_);" d="M283.5,285.8V75.9h215.1v209.9H283.5z
		 M293.8,276.4h195.1V85.8H293.8V276.4z"/>
	<path class="st1" d="M400.7,223.2c-0.7,0.1-1.2,0.1-1.6,0.1h-12c-1.6,0-1.7-0.1-2.1-1.7c-2-7.3-4-14.6-6.1-21.9
		c-0.1-0.6-0.3-1.1-0.5-1.7h-26.3c-0.2,0.7-0.4,1.4-0.6,2c-1.9,7.2-3.8,14.5-5.8,21.7c-0.4,1.6-0.5,1.6-2,1.6H333
		c-0.4,0-0.9,0-1.2-0.1c-0.6-0.7-0.2-1.4,0-2c1.7-6.1,3.4-12.1,5.2-18.1c5.9-20.6,11.8-41.3,17.7-61.9c0.6-2.2,1-4.4,1-6.7
		c0-1.4,0.1-1.5,1.6-1.5c5,0,10.1,0,15.1,0c1.9,0,1.9,0,2.4,1.7l11.6,39.2c4.6,15.5,9.2,31,13.7,46.6
		C400.3,221.4,400.5,222.2,400.7,223.2z M375.2,184.6c-3.4-12.9-6.7-25.6-10-38.3c-2.8,12.8-6.5,25.5-9.7,38.3L375.2,184.6z"/>
	<path class="st1" d="M419.4,192.9c-0.3,10.3,4.9,17.6,14.9,18.5c5.4,0.6,10.9-0.2,16-2.2c0.4-0.1,0.7-0.2,1.1-0.3
		c0.1,0.5,0.2,0.9,0.2,1.4c0,3,0,6,0,8.9c0.1,1.2-0.6,2.3-1.8,2.6c-2.9,1.2-6,2-9.2,2.3c-4.4,0.6-8.9,0.5-13.4-0.3
		c-10.1-2-16.7-7.9-20.2-17.5c-2.1-5.9-2.9-12.1-2.5-18.3c0.2-4.8,1.1-9.6,2.7-14.1c1.4-4,3.6-7.6,6.4-10.7
		c5.9-6.3,13.2-8.7,21.7-7.7c9,1,15,5.9,18.4,14.2c0.5,1.3,1,2.6,1.3,4c1.1,4.3,1.4,8.8,1,13.3c-0.1,1.1-0.2,2.3-0.4,3.4
		c-0.3,1.7-0.5,1.9-2.2,2c-2.1,0.2-4.2,0.3-6.3,0.3c-8.7,0-17.4,0-26.1,0L419.4,192.9z M442.1,181.4c0.3-2.8-0.1-5.6-1.4-8.2
		c-3.4-7.5-12.6-6.9-16.5-3c-3.1,3.1-4.2,7.1-4.7,11.3C421.1,181.9,440.7,181.8,442.1,181.4z"/>
</g>
</svg>
