<svg id="Capa_1" data-name="Capa 1" xmlns="http://www.w3.org/2000/svg" viewBox="0 0 57.98 57.98"><defs><style>.cls-1{fill:#0080a6;}.cls-2{fill:none;}.cls-3{fill:#fff;}</style></defs><path class="cls-1" d="M29,58a28.87,28.87,0,0,1-14.46-3.89L3.24,58,5.56,46A28.65,28.65,0,0,1,0,29,29,29,0,1,1,29,58Z"/><path class="cls-2" d="M29,11.46a17.51,17.51,0,0,0-13.8,28.31L14,45.8l5.7-2A17.52,17.52,0,1,0,29,11.46Z"/><path class="cls-3" d="M29,47.93a18.9,18.9,0,0,1-9.44-2.54l-7.38,2.54,1.51-7.81A18.93,18.93,0,1,1,29,47.93Zm-9.1-5.64.57.36a16.12,16.12,0,1,0-4.17-3.75l.4.51-.83,4.27Z"/><path class="cls-3" d="M19.43,21.71s1.11-1.94,2-2.05,2.07-.11,2.38.48,1.72,4,1.72,4a1.32,1.32,0,0,1-.12,1.16,11.81,11.81,0,0,1-1.21,1.41,1,1,0,0,0,0,1.22,22.87,22.87,0,0,0,2.67,3.27,14.58,14.58,0,0,0,4.33,2.54.87.87,0,0,0,.66-.21c.26-.25,1.67-2,1.67-2a1,1,0,0,1,1.2-.24c.75.34,4,2,4,2a.7.7,0,0,1,.38.71,4.61,4.61,0,0,1-.71,2.45,5.62,5.62,0,0,1-4,1.94A17.44,17.44,0,0,1,24.78,34c-2.65-2.65-5-5.33-5.55-7.77S18.75,22.72,19.43,21.71Z"/></svg>